<?xml version='1.0' encoding='utf-8'?>
<svg xmlns="http://www.w3.org/2000/svg" version="1.1" id="Warstwa_1" x="0px" y="0px" width="640.69px" height="579.09px" viewBox="0 0 640.69 579.09" enable-background="new 0 0 640.69 579.09"> <rect fill="#C5C5C5" width="640.69" height="579.09"/> <path fill="#BCBBBB" d="M156.04,405.83c-1.67-1.62-110.44,2.02-88.63,12.92s60.83,1.59,53.64,11.37 c-3.64,4.94-50.91,4.94-50.91,15.79c0,25.26,108.75,2.73,108.18,17.96c-0.4,10.64-78.07,19.96-44.81,33.59 c37,15.17,204.84,6.65,217.98,5.82c24.41-1.54-38.96-30.3,9.8-30.3c27.09,0,126.2,4.8,131.56-15.33 c6.09-22.89-38.76-6.49-37.53-22.6c1.15-15.04,154.81-9.94,147.54-29.23c-7.42-19.67-72.73-5.68-69.09-17.27 c3.61-11.5,28.18-10.59,26.36-26.42c-1.74-15.17-223.23-12.68-262.66-8.75C258.06,357.31,156.04,405.83,156.04,405.83"/> <path fill="#ADADAD" d="M156.04,405.83c0,0-32.26,24.03-5.9,29.23s44.89,5.73,40.63,14.1s-0.62,23.83,36.65,23.83 s24.18-9.62,36.63-7.99s63.94,3.95,51.06-8.05c-3.02-2.82-6.69-8.24-2.13-9.34c10.53-2.55,15.1,17.74,42.04,14.74 c26.94-3,33.29-13.51,36.15-16.44s36.55-2.88,44.14-8.37c11.07-8-11.31-22.11,2.13-22.42c13.44-0.31,70.32-1.99,79.1-13.52 c9.81-12.89-5.24-26.97-27.03-24.66C467.72,379.24,182.85,400.49,156.04,405.83"/> <g> <g> <path fill="#E0D5C7" d="M503.34,391.89c-0.12-0.36-0.22-0.74-0.34-1.09c-0.2-0.57-0.44-1.13-0.74-1.65 c-0.02-0.04-0.05-0.07-0.07-0.11c-0.57-5.32-7.03-9.82-10.51-12.97c-0.02-0.01-0.03-0.03-0.05-0.04c0.38-0.79,0.63-1.68,0.7-2.62 c0.04-0.55,0.08-1.11,0.13-1.66c0.02-0.23,0.03-0.39,0.04-0.46c0.02-0.21,0.05-0.42,0.08-0.63c0.1-0.78,0.27-1.54,0.47-2.3 c3-5.49,3.15-11.55,3.32-17.71c0.03-1.11-0.21-2.04-0.64-2.79c0.38-4.97-0.92-10.77-3.72-14.45c2.54-8.48,5.23-21.79,4.06-23.86 c-0.67-1.19-5.22-3.34-10.6-5.51c0,0-16.63-22.87-22.09-25.68c-5.45-2.81-34.6-11.83-59.5-7.14 c-24.89,4.69-51.17,15.65-62.11,19.74c-10.93,4.09-23.28,13.54-30.06,17.93c-6.78,4.39-11.77,10.54-15.69,12.41 c-3.92,1.87-4.14,21.59-3.68,21.61c0.46,0.02,18.7,3.15,18.7,3.15l-6.54,1.77l4.38,20.47c0,0,11.32,5.33,18.66,4.79 c6.48-0.48,27.36,1.94,23.13,5.87c-3.7,3.44-4.65,4.46-5.85,9.44c-0.34,0.63-0.49,1.37-0.46,2.12c-0.12,0.39-0.18,0.78-0.17,1.18 c0.03,1.07,0.51,2.1,1.29,2.83c0.8,0.74,1.76,1.01,2.83,1.05l0.09,0c0.56,0.02,1.09-0.11,1.57-0.34c2.13,1.84,4.27,2.25,8.01,1.53 c1.68-0.32,1.69-1.52,3.69-0.54c1.19,0.58,2.32,0.91,3.61,1.18c2.74,0.58,5.63-1.71,8.21-0.41c3.3,1.66,6.35-1.38,5.69-4.69 c-0.25-1.26-1.25-2.7-1.08-3.96c0.2-1.48,1.21-3.36,1.74-4.88c-0.31,1.99-0.51,4.72-0.12,7.85c0.8,6.42,9,13.35,14.4,12.52 l7.72,0.2c1.21,0.5,22.77,1.25,22.77,1.25c0.45,0.48,2.85,2.26,6.37,3.15c3.51,0.89,14.2-0.43,20.74-2.5 c6.55-2.07,11.88-9.32,11.88-9.32c1.39-2.14,5.19-7.7,8.58-12.98c-0.38,1.55-0.59,3.16-1,4.71c-0.25,0.53-0.46,1.08-0.67,1.63 c-0.13,0.33-0.26,0.65-0.4,0.97c-0.03,0.03-0.05,0.04-0.08,0.07c-0.7,0.76-1.08,1.79-1.05,2.83c0.06,1.99,1.96,4.19,4.12,3.88 c1.21-0.18,2.35-0.52,3.13-1.53c0.11-0.14,0.2-0.28,0.29-0.42c0.94,1.95,3.06,3.51,5.16,3.2c1.7-0.25,3.04-0.56,4.57-1.36 c0.18-0.09,0.35-0.19,0.53-0.29c3.53,1.76,6.92,2.71,10.54,0.31c0.24-0.16,0.45-0.33,0.65-0.5c1.18,0.58,2.58,0.6,3.82-0.18 C503.43,395.91,504.18,393.64,503.34,391.89z M380.28,381.25c0.09-2.12-0.8-3.82-1.41-5.9c0.47,0.56,0.81,1.1,0.93,1.57l0,0 c0.24,1.25,0.51,2.35,0.81,3.17C380.62,380.08,380.47,380.5,380.28,381.25z"/> <g> <path fill="#AC9A93" d="M399.15,323.16c4.03-1.81,10.9-4.34,13.15-3.17c1.39,0.72,3.78,3.95,3.78,3.95l2.64-11.41 c0,0,0.11,10.81,0.31,11.51c2.61-2.21,6.27-5.13,9.88-4.26c4.91,1.18,8.31,6.51,12.6,8.9c8.61,4.79,17.86,9.7,22.93,18.56 c3.48,6.09,2.76,12.92-1.31,18.52c-1.08,1.49-13.81,11.65-13.67,11.85c2.61,3.67,5.61,7.06,8.18,10.75c0.69,1,5.83,8.6,4.95,9.5 c0,0-6.53,6.62-9.66,7.62c-3.13,1-19.33,2.92-21.25,2.31c-1.93-0.61-18.7-3.48-20.71-3.4c-2.02,0.08-19.88-1.64-22.92-2.96 c-3.04-1.32-7.53-21.65-7.53-21.65s-1.74-10.9-1.78-12.3c-0.04-1.4-0.22-10.61-0.22-10.49s0.82-9.3,0.82-9.3 s-3.03-4.86-0.55-6.11s5.85-3.75,5.85-3.75s-2.79,0.19-1.57-1.2c1.22-1.38,5.89-3.6,7.36-3.7c0,0-1.59-1.18,0.1-2.81 C393.16,327.55,395.51,324.79,399.15,323.16z"/> <path fill="#5C5654" d="M384.21,299.48c0.79-0.24-12.12,2.27-14.9,3.46s-6.91,6.85-6.42,9c0.48,2.16,5.13,26.05,4.95,28.09 c-0.18,2.04-1.71,14.97,1.17,14.18c2.88-0.79,4.22-2.25,4.98-4.66c0.77-2.41,3.33-15.06,3.33-15.06s8.22-14.4,9.32-14.27 C387.75,320.37,377.39,301.51,384.21,299.48z"/> <path fill="#5C5654" d="M475.32,300.18c0,0,20.53,5.86,20.74,9.36c0.21,3.5-5.13,27.19-5.37,27.8 c-0.24,0.61-6.04,11.17-6.54,12.07c-0.49,0.9-3.37,5.33-3.7,5.64c-0.33,0.31-2.43,1.64-2.81,1.03c-0.38-0.62-2.58-4.46-3.21-5.7 s-13.76-34.2-15.52-37.06c-1.77-2.86-1.06-1.83,3.47-3.39C466.92,308.36,475.51,302.54,475.32,300.18z"/> <path fill="#5C5654" d="M380.34,346.84c0,0,10.76-3.93,12.64-3.87c1.88,0.07,5.48,0.62,4.97,3.07 c-0.5,2.45,2.63,10.85,2.63,10.85s5.21-4.49,6.6-4.79c1.39-0.3,6-1.42,10.03-0.39s7.79,4.73,8.62,6.06 c0.83,1.33,3.61,4.19,3.61,4.19s0.8-3.93,0.55-5.44c-0.25-1.51-3.07-12.03-1.65-13.67c1.43-1.64,7.1-5.53,10.01-3.98 c2.91,1.54,21.38,14.41,22.27,15.6c0.89,1.19,0.74,10.81-0.4,11.5c-1.14,0.7-3.21,3.76-4.83,4.52s-10.32,3.33-11.43,3.86 c0,0,2.56,6.54,5.27,9.45c2.71,2.91,13.34,14.06,13.34,14.06s-3.22,3.48-4.74,4.61c-1.51,1.13-18.65,6.17-21.83,6.19 c-3.18,0.02-11.42-3.38-11.42-3.38l-25.65-1.32c0,0-5.58,0.1-6.7-0.12s-11.29-5.99-12.54-12.52c-1.25-6.53,1.24-11.51,1.24-11.51 l2.7-2.76l4.57-4.62c0,0-2.54,0.21-4.73-1.97c-2.19-2.17-4.81-4.38-4.81-4.38l0.1-6.47l-0.55-5.05 C378.24,354.54,377.77,347.75,380.34,346.84z"/> <path fill="#AC9A93" d="M381.96,299.88c0,0-0.67,4.47,0.72,8.77s3.97,11.59,3.97,11.59l6-7.26l7.27-4.28 c0,0-1.52-15.04,3.09-12.48c0,0-3-0.7-6.54,0.04S381.96,299.88,381.96,299.88z"/> <path fill="#AC9A93" d="M455.22,298.82c0,0,2.78,11.93,2.85,12.53c0.07,0.6,9.67-3.76,12.26-5.79c2.6-2.03,5.89-5,5.83-5.07 s-9.13-3.51-11.08-3.56S455.22,298.82,455.22,298.82z"/> <path fill="#2D2D29" d="M396.45,403.88c0.75-3.2,2.67-6.26,4.69-8.81c1.29-1.63,2.78-3.21,4.48-4.42c1.26-0.89,2.7-1.8,4.29-1.77 c-1.17,1.05-2.02,2.33-2.97,3.56c-1.1,1.55-2.28,3.06-3.49,4.52C401.4,399.46,399.15,402.04,396.45,403.88z"/> <path fill="#2D2D29" d="M390.41,377.72c3.6-3.71,7.34-7.29,10.9-11.04c3.25-3.43,6.55-7.71,11.8-7.38 c5.24,0.33,9.27,4.5,12.22,8.47c1.75,2.36,3.41,4.79,5.11,7.19c1.31,1.85,2.56,4.18,4.32,5.65c0,0,0.54,0.39,0.55,0.36 c-0.29,0.55-4.22-3.15-4.53-3.47c-1.85-1.86-3.68-3.76-5.36-5.77c-3.09-3.7-6.5-8.07-11.39-9.31c-2.23-0.56-4.36,0.28-6.14,1.58 c-2.23,1.63-4.13,3.72-6.21,5.53C398.28,372.65,394.3,375.27,390.41,377.72z"/> <path fill="#2D2D29" d="M402.21,371.04c0.14,0.28,1.78,6.38,7.47,6.89c5.69,0.5,13.54-3.54,13.78-6.15s-5.62-8.98-10-9.59 C409.08,361.56,400.36,367.35,402.21,371.04z"/> <path fill="#2D2D29" d="M442.87,374.87c1.8-0.65,3.6-1.33,5.38-2.05c2.73-1.09,5.61-2.17,8.01-3.9c1-0.71,1.58-2.05,2.08-3.12 c0.64-1.37,1.17-2.82,1.55-4.28c0.46-1.74,1.32-4.55-0.15-5.99c-3.62-3.49-8.08-6.22-12.28-8.95c-1.16-0.75-2.29-1.46-3.39-2.32 c-2.1-1.64-4.63-4.11-7.39-4.45c-2.26-0.28-4.96,1.1-6.57,2.61c-0.83,0.78-1.44,1.73-1.33,2.9c0.12,1.33,0.4,2.65,0.63,3.96 c0.42,2.41,0.82,4.83,1.01,7.26c0.1,1.17,0.65,5.01-0.98,5.39c0.87-0.34,0.67-1.81,0.6-2.53c-0.12-1.2-0.36-2.38-0.63-3.56 c-0.63-2.75-1.4-5.48-2.12-8.21c-0.32-1.22-0.73-2.51-0.48-3.78c0.27-1.34,1.09-2.48,2.06-3.41c1.87-1.8,4.46-3.11,7.06-3.31 c4.71-0.36,8.15,3.97,11.83,6.15c3.46,2.05,6.73,4.38,9.93,6.82c1.74,1.37,4.39,3.03,5.15,5.26c1.04,3.57-0.76,7.8-2.38,10.94 c-0.72,1.41-1.6,2.93-2.91,3.87c-1.57,1.13-3.51,1.77-5.34,2.35C449.16,373.53,446.03,374.26,442.87,374.87z"/> <path fill="#2D2D29" d="M400.89,357.75c-0.79-1.22-1.46-2.52-2.07-3.83c-0.71-1.5-1.75-3.36-1.67-5.07 c0,0.02-0.01,0.04-0.01,0.05c0.09-1.33-0.71-4.3-2.33-4.37c-0.3,0.01-1.54,0.1-2.1,0.17c-1.73,0.23-3.45,0.52-5.17,0.85 c-1.65,0.31-3.3,0.65-4.93,1.07c-1.43,0.37-2.92,0.75-4.07,1.73c0.64-1.51,2.2-2.46,3.59-3.22c1.74-0.95,3.6-1.68,5.49-2.26 c1.84-0.57,3.74-1.04,5.65-1.25c0.76-0.08,1.54-0.16,2.3,0c3.34,0.72,4.14,4.56,3.99,7.47c-0.06,1.24,0.34,2.79,0.58,4.09 C400.43,354.7,400.71,356.22,400.89,357.75z"/> <path fill="#2D2D29" d="M378.74,364.68c-0.03,0.15,1.84,1.26,2.01,1.39c0.96,0.72,1.86,1.51,2.73,2.33 c1.45,1.35,2.92,3.31,4.91,3.85c-1.83,1.99-5.21,0-6.7-1.42c-0.94-0.9-1.72-1.98-2.27-3.16c-0.27-0.57-0.47-1.18-0.6-1.79 C378.79,365.76,378.77,364.7,378.74,364.68C378.74,364.71,378.75,364.69,378.74,364.68z"/> <path fill="#2D2D29" d="M391.02,337.82c2.24-1.43,4.85-2.46,7.4-3.15c1.91-0.51,5.16-1.41,6.66,0.41 c1.68,1.99,2.43,5.12,2.86,7.63c0.47,2.8,0.69,6.58-1.66,8.62c0.86-2.54,0.07-5.21-0.72-7.68c-0.72-2.25-1.47-4.87-2.88-6.8 c0.04,0.06,0.13,0.2,0.22,0.21C398.97,336.62,394.98,337.66,391.02,337.82z"/> <path fill="#2D2D29" d="M442.54,336.87c-0.82-0.19-1.6-0.64-2.37-0.95c-1.26-0.5-2.55-0.94-3.88-1.21 c-2.13-0.43-4.65-0.28-6.45,0.46c-3.25,1.33-7.5,3.82-7.43,7.9c0,0.04-0.01-0.15,0-0.09c0.04,4.44,1.33,8.73,1.58,13.15 c-1.68-3.53-3.18-7.12-4.02-10.96c-0.74-3.39,0.25-6.62,2.68-9.12c2.23-2.29,6.15-3.93,9.38-3.98c2.26-0.03,4.45,0.63,6.41,1.72 C439.99,334.65,441.14,335.86,442.54,336.87z"/> <path fill="#2D2D29" d="M436.72,309.03c2.62,1.73,4.95,3.89,7.34,5.91c2.38,2,4.88,3.71,7.37,5.54 c-3.44,0.55-6.72-1.14-9.31-3.25C439.76,315.04,437.38,312.3,436.72,309.03z"/> <path fill="#2D2D29" d="M413.78,308.23c-0.91,2.92-3.28,5.48-5.63,7.33c-2.42,1.9-5.6,3.49-8.76,3.12 c2.21-1.92,4.62-3.66,6.91-5.48C408.65,311.38,411.08,309.49,413.78,308.23z"/> <path fill="#2D2D29" d="M449.43,311.47c0,0,2.92-4.21,5-1.83c2.08,2.38,10.64,22.27,12.09,24.78s9.92,20.69,11.12,21.65 c1.2,0.97,0,0,0,0s-8.62-13.86-9.79-15.75C466.69,338.43,450.47,312.74,449.43,311.47z"/> <path fill="#2D2D29" d="M377.26,334.61c0,0,13.14-19.01,16.27-20.29c3.13-1.28,10.43-7.5,8.45-8.19 c-1.98-0.69-7.85,3.58-10.88,6.79c-3.03,3.21-14.43,20.79-14.46,21.66"/> <path fill="#2D2D29" d="M405.5,329.49c3.69-0.29,7.33,4.9,4.96,8.07C408.46,335.26,406.39,332.42,405.5,329.49z"/> <path fill="#2D2D29" d="M426.54,329.49c-1.94,2.84-5.47,5.21-8.63,6.53C417.61,332,422.85,328.46,426.54,329.49z"/> <path fill="#2D2D29" d="M479.95,369.56c2.55,0.78,5.04,1.72,7.5,2.75c2.2,0.93,4.96,1.95,6.57,3.79 c-0.05-0.05-0.09-0.11-0.14-0.16c4.13,3.63,8.19,8.12,10.21,13.3c0.99,2.55,1.25,5.67-0.79,7.78c-0.21,0.22-0.95,1.01-1.29,0.98 c-1.46-0.15-2.91-0.34-4.36-0.55c1.44-0.11,2.88-0.2,4.32-0.25c-0.08,0.03-0.16,0.05-0.25,0.08c2.23-2.21,1.94-4.9,0.69-7.6 c-1.45-3.13-3.72-5.89-5.98-8.46c-2.11-2.39-4.2-4.64-6.93-6.29C486.37,373.05,483.12,371.37,479.95,369.56 C482.38,370.31,482.16,370.82,479.95,369.56z"/> <path fill="#2D2D29" d="M495.36,383.04c1.44,3.06,2.5,6.38,3.21,9.69c0.39,1.82,1.08,4.68-0.05,6.36c-0.71,1.05-2,0.95-3.12,1.01 c-2.23,0.11-4.77,0.06-6.86-0.79c-1.48-0.6-2.03-1.62-1.93-3.09c0.19-2.31,0.73-4.59,1.12-6.87c0.29-1.71,1.04-4.22,0.23-5.87 c0.65,0.8,0.76,1.95,0.83,2.94c0.12,1.46,0.05,2.93-0.03,4.39c-0.11,2-0.5,4.35-0.37,6.21c0.03,0.49,1.82,0.79,2.18,0.85 c1.43,0.25,2.91,0.29,4.36,0.28c0.5,0,1.27,0.1,1.75-0.06c0.75-0.26,0.59-1.72,0.58-2.42 C497.12,391.43,496.11,387.21,495.36,383.04z"/> <path fill="#2D2D29" d="M487.48,397.11c-2.86,2.15-9.48,4.34-11.6,0.1c-1.06-2.36,0.03-5.25,0.88-7.51 c0.44-1.17,0.94-2.32,1.37-3.5c0.32-0.88,0.85-2.11,0.43-3.04c1.22,1.25,0.48,3.86,0.17,5.33c-0.49,2.23-1.51,4.74-1.25,7.06 c0.11,2.02,2.59,2.5,4.23,2.44C483.65,397.97,485.6,397.58,487.48,397.11z"/> <path fill="#2D2D29" d="M476.78,396.82c-2.35,1.57-7.54,3.29-8.69-0.46c-0.65-2.13,0.45-4.86,1.23-6.82 c0.81-2.03,1.99-3.87,2.82-5.87c0.09,2.26-0.71,4.61-1.28,6.77c-0.42,1.69-1.41,4.12-0.79,5.86c-0.07-0.21-0.02-0.08,0.01-0.03 c0.15,0.29,0.36,0.44,0.66,0.57c0.73,0.3,1.54,0.31,2.32,0.31C474.3,397.13,475.55,396.97,476.78,396.82z"/> <path fill="#2D2D29" d="M492.29,374.61c-0.74-3.45,0.13-6.67,1.6-9.77c1.58-3.36,1.63-7.54,1.47-11.18 c-0.32-2.61-1.15-6.11-1.61-8.99c-0.64-4.03-1.3-8.1-1.48-12.18c1.5,3.42,2.62,7.03,3.64,10.61c0.94,3.32,1.93,6.73,2.42,10.16 c0.23,1.62,0.08,3.38-0.12,5c-0.29,2.37-0.84,4.72-1.92,6.86c-0.79,1.54-2.04,2.78-2.62,4.44 C493.04,371.2,492.57,372.87,492.29,374.61z"/> <path fill="#2D2D29" d="M469.87,285c-0.92-1.02-1.88-2.02-2.86-2.98c-0.98-0.95-2.01-1.98-3.17-2.72 c-1.22-0.77-2.58-1.26-3.94-1.74c-12.09-4.2-25.24-6.36-38.02-6.62c-15.39-0.3-30.74,4.04-45.27,8.75 c-12.82,4.15-25.55,8.83-37.94,14.14c-0.69,0.29-1.37,0.61-2.04,0.95c-2.11,1.05-4.15,2.28-6.14,3.46 c-5.41,3.22-10.53,6.9-15.77,10.38c-2.17,1.43-4.31,2.88-6.35,4.49c-3.97,3.11-7.4,6.8-11.74,9.41c-0.98,0.59-1.33,2.38-1.6,3.38 c-0.53,1.99-0.82,4.03-1.04,6.07c-0.23,2.09-0.38,4.19-0.45,6.29c-0.03,1.1-0.16,2.33-0.05,3.47c7.83,1.41,15.69,2.69,23.54,4.04 c-3.71,0.97-7.41,1.93-11.11,2.9c1.26,6.17,2.52,12.33,3.78,18.49c1.74-0.2,3.48-0.39,5.22-0.57c-0.32,0.66-0.61,1.34-0.84,2.03 c-1.81,0.23-3.62,0.46-5.42,0.7c-0.75,0.11-0.6-0.13-0.76-0.84c-0.03-0.13-0.06-0.26-0.09-0.39l-3.58-16.01 c-0.25-1.13-0.5-2.25-0.75-3.37c-0.05-0.21-0.1-0.43-0.14-0.64c-0.11-0.45-0.49-1.06,0.03-1.21c0.62-0.17,1.24-0.34,1.85-0.52 c-2.95-0.48-5.9-0.97-8.85-1.46c-0.52-0.08-1.05-0.17-1.57-0.26c-1.05-0.17-2.47-0.17-3.35-0.81c-0.91-0.66-0.61-2.9-0.61-3.81 c0.01-3.2,0.2-6.4,0.59-9.57c0.35-2.9,0.76-6.14,2.27-8.7c0.75-1.27,1.82-1.71,2.98-2.46c2.5-1.61,4.64-3.87,6.87-5.83 c1.48-1.32,3.01-2.57,4.57-3.8c2.76-2.19,5.85-4.05,8.74-6.05c5.18-3.57,10.41-7.12,15.96-10.08c4.14-2.21,8.45-3.91,12.82-5.58 c7.18-2.74,14.36-5.56,21.65-7.97c10.97-3.63,22.09-7.21,33.48-9.39c1.34-0.26,2.69-0.49,4.04-0.71 c12.82-2.04,26.02-0.9,38.66,1.75c4.31,0.9,8.66,1.94,12.87,3.33c0,0,0.01,0.01,0.02,0.01c0.55,0.18,1.1,0.37,1.64,0.56 c0.02,0,0.03,0.01,0.04,0.01c0.26,0.09,0.5,0.18,0.75,0.28c3.08,1.18,5.49,2.59,6.9,4.27C467.2,281.86,468.59,283.51,469.87,285z "/> <path fill="#2D2D29" d="M485.46,304.02c-2.26-2.95-4.54-5.88-6.89-8.77c-0.96-1.2-1.93-2.39-2.93-3.57 c-0.04-0.05-0.09-0.1-0.14-0.16c-0.72-0.89-1.47-1.78-2.23-2.66c-1.11-1.3-2.24-2.59-3.4-3.86c-1.28-1.49-2.67-3.14-4.18-4.93 c-1.41-1.68-3.82-3.09-6.9-4.27c0.99,0.36,1.97,0.75,2.93,1.16c2.85,1.09,4.96,3.23,6.99,5.44c2.12,2.32,4.11,4.75,6.05,7.21 c3.4,4.28,6.63,8.69,9.79,13.14C484.82,303.12,485.12,303.54,485.46,304.02z"/> <path fill="#2D2D29" d="M377.26,336.74c-0.62,2.1-0.77,4.38-1.13,6.54c-0.48,2.81-1.04,5.69-2.17,8.32 c-0.71,1.66-1.89,3.51-3.85,3.71c-2.96,0.3-3.68-3.29-3.84-5.51c-0.39-5.33,0.83-10.62,0.17-15.93 c-0.79-6.38-2.41-12.64-3.41-18.99c-0.66-4.18-1.59-9.1,2.55-11.83c2.49-1.64,5.65-2.03,8.54-2.46c2.91-0.44,5.78-1.06,8.61-1.87 c3-0.86,6-1.74,9.05-2.38c2.43-0.51,4.97-1.05,7.46-1.13c4.82-0.16,9.51,2.8,11.17,7.4c-2.3-4.55-7.4-6.78-12.31-5.84 c-5.96,1.14-11.53,3.47-17.36,5.05c-2.94,0.79-5.9,1.3-8.87,1.94c-2.5,0.54-5.3,1.28-6.31,3.86c-0.44,0.5-0.15,2.19-0.11,2.75 c0.13,1.58,0.39,3.15,0.65,4.71c0.54,3.17,1.14,6.34,1.72,9.51c0.74,4.08,1.7,8.39,1.54,12.56c-0.15,3.92-0.93,7.8-0.96,11.73 c-0.01,1.1-0.16,4.97,1.78,4.65c1.97-0.33,3.02-3.57,3.6-5.15c0.77-2.08,1.36-4.24,1.94-6.38 C376.18,340.24,376.54,338.4,377.26,336.74z"/> <path fill="#2D2D29" d="M477.64,356.07c0.65,3.11,1.17,6.26,1.4,9.43c0.2,2.77,0.47,6.08-0.72,8.68 c-2.27,4.95-5.22,9.56-8.11,14.17c-3.28,5.22-6.36,10.61-11.1,14.66c-2.23,1.9-4.77,3.51-7.6,4.32c-2.18,0.67-4.41,1.18-6.65,1.6 c-3.07,0.58-6.16,1-9.28,1.16c-4.37,0.22-8.68-0.87-12.05-3.82c0.34,0.16,0.69,0.31,1.03,0.47c-5.12-0.18-10.23-0.38-15.34-0.65 c-2.57-0.14-5.45-0.01-7.94-0.72c0.18,0.04,0.35,0.07,0.52,0.11c-2.57-0.07-5.15-0.15-7.72-0.22c0.08-0.01,0.17-0.01,0.26-0.02 c-6.54,0.42-13.15-5.21-15.24-11.22c-0.57-1.64-0.68-3.21-0.8-4.92c-0.21-3.08,0.28-6.48,1.28-9.39c0,0.25,0,0.49,0,0.74 c-1.05-3.83-1.54-7.78-1.68-11.75c-0.1-2.78,0.43-5.49,0.25-8.25c-0.13-1.98-0.36-3.96-0.47-5.94c-0.05-0.96-0.1-1.92-0.04-2.88 c0.06-0.93,0.37-1.8,0.47-2.73c0.42-3.96-0.3-8.23-0.86-12.15c0.67,3.09,1.27,6.21,1.55,9.36c0.12,1.32,0.22,2.68-0.03,3.99 c-0.31,1.59-0.13,3.2,0.07,4.8c0.19,1.5,0.43,2.99,0.63,4.49c0.18,1.31,0.44,2.72,0.25,4.04c-0.31,2.19-0.11,4.41,0.11,6.6 c0.31,3.14,0.79,6.31,1.72,9.33c0.27,0.88,0.01,1.36-0.2,2.27c-0.36,1.58-0.53,3.18-0.61,4.8c-0.15,3.26,0.23,6.59,2.17,9.33 c1.75,2.47,4.04,4.52,6.78,5.82c1.63,0.77,2.98,0.78,4.7,0.81c2.49,0.06,4.97,0.11,7.46,0.17c0.98,0.02,2,0.26,3,0.32 c0.99,0.06,1.98,0.13,2.97,0.18c2.02,0.1,4.05,0.2,6.07,0.29c3.25,0.14,6.49,0.27,9.74,0.41c0.34,0.01,0.68,0.03,1.02,0.04 c0.74,0.03,1.04,0.5,1.64,0.92c1.56,1.08,3.33,1.8,5.15,2.32c-0.24-0.07,0.2,0.01,0.26,0.02c0.29,0.03,0.57,0.1,0.86,0.13 c0.73,0.08,1.52,0.08,2.25,0.07c0.97-0.02,1.96-0.07,2.93-0.16c2.26-0.21,4.5-0.48,6.74-0.86c2.24-0.38,4.47-0.86,6.65-1.5 c2.76-0.82,5.23-2.5,7.38-4.38c2.67-2.34,4.63-5.03,6.62-7.91c3-4.34,5.99-8.68,8.88-13.1c1.83-2.81,3.79-5.62,4.21-9.01 C478.79,365.64,478.28,360.71,477.64,356.07C478.4,359.67,477.89,357.9,477.64,356.07z"/> <path fill="#2D2D29" d="M410.4,302.59c9.03-1.18,18.36-0.5,27.41-0.05c-0.14,0.03-0.29,0.05-0.43,0.06 c3.79-1.49,7.62-2.87,11.47-4.18c2.96-1.01,6.04-1.82,9.11-2.4c2.96-0.5,6.01-0.86,8.97-0.14c3.84,0.93,7.65,2.45,11.36,3.79 c2.96,1.07,5.89,2.22,8.8,3.43c2.79,1.17,5.7,2.34,8.25,3.98c0.87,0.56,1.81,1.24,2.13,2.24c0.71,2.22,0.06,5.03-0.31,7.26 c-0.87,5.31-2.19,10.57-3.76,15.71c-0.75,2.44-1.56,4.91-2.72,7.19c-0.55,1.08-1.32,2.04-1.96,3.07c-0.68,1.1-1.34,2.21-2,3.33 c-1.31,2.25-2.58,4.53-4.04,6.68c-0.66,0.98-1.38,1.94-2.28,2.73c-0.36,0.32-0.77,0.61-1.21,0.79c-0.57,0.24-1-0.06-1.56-0.02 c0.37-0.06,0.72,0.13,1.09,0.02c0.39-0.11,0.74-0.34,1.04-0.61c0.72-0.66,1.3-1.45,1.81-2.28c1.16-1.87,2.1-3.9,3.07-5.88 c0.96-1.97,1.91-3.95,2.97-5.88c1.06-1.92,2.01-3.68,2.66-5.8c1.37-4.44,2.39-9,3.26-13.56c0.44-2.3,0.86-4.62,1.13-6.95 c0.13-1.13,0.23-2.26,0.26-3.4c0.02-0.53,0.05-1.19-0.2-1.67c0.03,0.05,0.05,0.1,0.07,0.16c-1.53-1.32-3.61-2.14-5.44-2.96 c-2.91-1.3-5.88-2.45-8.85-3.58c-4.05-1.53-8.13-2.98-12.23-4.38c-5.96-2.02-12.27-0.38-18.13,1.31 c-3.05,0.88-6.09,1.83-9.1,2.83c-1.05,0.35-2.32,1.04-3.42,1.07c-0.35,0.01-0.72-0.07-1.06-0.11 C427.93,303.57,419.12,302.35,410.4,302.59z"/> <path fill="#2D2D29" d="M462.59,397.85c-0.33-0.01-1.2-1.12-1.43-1.33c-1.32-1.23-2.63-2.48-3.94-3.73 c-1.99-1.9-3.96-3.82-5.93-5.75c-1.65-1.62-3.41-3.18-4.79-5.04c-1.85-2.48-3.59-5.05-5.43-7.54c-1.6-2.17-3.27-4.54-5.48-6.12 c-2.07-1.48-4.16-2.95-6.16-4.53c-1.11-0.88-2.18-1.8-3.14-2.84c-0.85-1.08-1.55-2.2-2.3-3.35c-1.23-1.89-2.73-3.59-4.98-4.2 c-1.11-0.3-2.28-0.27-3.42-0.3c-1.33-0.04-2.66-0.11-4-0.11c-2.21-0.01-4.74,0.1-6.47,1.65c-1.76,1.56-3.15,3.69-4.68,5.48 c-6.12,7.12-12.59,13.94-19.82,19.95c1.56-1.67,3.01-3.43,4.51-5.16c1.87-2.16,3.87-4.19,5.71-6.38 c3.84-4.59,7.45-9.39,11.08-14.14c1.76-2.3,3.89-3.6,6.78-4.02c2.94-0.43,6.05-0.27,9.01-0.12c2.75,0.05,5.3,1.44,7.11,3.45 c1.85,2.06,2.84,4.64,4.91,6.52c3.66,3.32,8.01,5.68,11.09,9.62c3.14,4.03,5.53,8.58,8.56,12.67c1.27,1.7,3.05,3.44,4.51,5.12 c1.56,1.79,3.11,3.58,4.65,5.39c1,1.17,2,2.35,2.99,3.54C461.66,396.73,462.37,397.84,462.59,397.85z"/> <path fill="#2D2D29" d="M409.68,377.92c0.15,1.59,0.27,3.18,0.39,4.78c0.08,1.04,0.16,2.09,0.3,3.12 c0.08,0.61,0.09,1.7,0.51,2.18c-0.02-0.02-0.05-0.06-0.06-0.09c2.91,2.39,5.64,5.04,8.09,7.91c1.29,1.51,2.48,3.09,3.53,4.77 c0.52,0.84,1.01,1.73,1.34,2.67c0.05,0.14,0.54,2.07,0.08,1.97c0.25-0.96-1.4-2.26-1.98-2.84c-1.16-1.15-2.36-2.25-3.55-3.37 c-2.62-2.46-5.18-4.98-7.71-7.54c-0.59-0.61-1.31-1.21-1.8-1.91c-0.88-1.12-0.68-3.07-0.58-4.4 C408.42,382.74,408.88,380.24,409.68,377.92z"/> <path fill="#59210F" d="M437.45,355.09c-0.06,0.21,1.46,8.35,4.91,9.31c3.45,0.96,8.24,0.2,9.06-0.94 c0.82-1.14,3.91-7.09,3.91-7.09s-10.79-5.26-11.15-5.37C443.83,350.89,438.85,350.31,437.45,355.09z"/> <path fill="#59210F" d="M385.61,350.25c-0.54,0.25-5.85,3.5-5.52,4.92s4.59,8.47,6.86,8.25c2.28-0.22,5.3-2.48,5.3-2.48 s0.6-7.3-0.5-8.51C390.66,351.22,385.61,350.25,385.61,350.25z"/> <ellipse transform="matrix(0.9994 0.0345 -0.0345 0.9994 12.5515 -15.0854)" fill="#2D2D29" cx="443.18" cy="355.97" rx="5.76" ry="5.84"/> <ellipse transform="matrix(0.9994 0.0345 -0.0345 0.9994 12.5102 -13.0896)" fill="#2D2D29" cx="385.42" cy="355.84" rx="5.76" ry="5.84"/> <circle fill="#FFFFFF" cx="441.49" cy="353.38" r="1.77"/> <circle fill="#FFFFFF" cx="442.86" cy="355.02" r="0.95"/> <circle fill="#FFFFFF" cx="383.96" cy="353.92" r="1.77"/> <circle fill="#FFFFFF" cx="385.33" cy="355.56" r="0.95"/> <path fill="#2D2D29" d="M436.04,359.87c0.13-4.56,2.24-11.76,8.16-10.1c4.04,1.13,7.84,2.97,11.47,5.07 c0.69,0.4,1.38,0.83,2.06,1.24c0.22,0.14-0.38,1.04-0.5,1.27c-1.25,2.52-2.88,5-4.95,6.91c-0.97,0.91-2.11,1.78-3.41,2.14 c-1.21,0.33-2.39,0.21-3.61-0.04c-1.96-0.41-3.82-1.23-5.46-2.38C438.41,363.03,436.57,361.56,436.04,359.87 C436.08,358.73,436.21,360.4,436.04,359.87z M436.04,359.87c1.09,1.53,3.26,2.59,4.96,3.28c1.93,0.78,4.35,1.47,6.45,1.14 c2.19-0.35,3.85-2.92,4.98-4.6c0.78-1.15,1.5-2.38,2.1-3.63c0.19,0.64,0.37,1.28,0.56,1.92c-3.49-2.09-7.06-4.15-10.86-5.64 c-1.41-0.55-2.65-1.05-4.02,0.05C438.03,354.14,436.92,357.32,436.04,359.87C436.36,360.31,436.41,358.8,436.04,359.87z"/> <path fill="#2D2D29" d="M394.39,356.29c0,0.01-0.47-0.37-0.52-0.43c-0.3-0.34-0.59-0.69-0.88-1.04 c-0.56-0.66-1.11-1.33-1.72-1.94c-1.05-1.05-2.65-2.49-4.26-1.86c-1.36,0.53-2.5,1.35-3.51,2.42c-0.67,0.71-1.22,1.51-1.82,2.27 c-0.17,0.17-0.3,0.36-0.48,0.51c-0.28,0.22-0.94,0.26-1.12,0.44c0.16-0.16,0.71-0.18,0.94-0.24c-0.06,0.02-0.13,0.04-0.2,0.06 c0.4-0.21,0.85-0.8,0.73-1.29c0.7,2.71,3.25,7.21,6.52,7.1c2.88,0.2,5.17-3.25,6.31-5.46c-0.35,3.86-3.29,8.15-7.56,7.75 c-2.91-0.27-5.15-2.68-6.58-5.04c-0.76-1.25-2.81-4.47-0.9-5.65c-0.06,0.01-0.11,0.03-0.17,0.04c0.26-0.06,0.75-0.09,0.96-0.25 c-0.19,0.15-0.67,0.05-0.87,0.3c2.09-2.5,4.96-5.75,8.62-5.33c1.87,0.23,3.29,1.65,4.28,3.16c0.5,0.76,0.92,1.58,1.28,2.41 C393.5,354.36,394.37,356.31,394.39,356.29C394.39,356.32,394.37,356.31,394.39,356.29z"/> <ellipse transform="matrix(0.9994 0.0345 -0.0345 0.9994 12.9102 -13.9855)" fill="#E5E6E3" cx="411.75" cy="367.13" rx="3.85" ry="1.31"/> <path opacity="0.2" fill="#2D2D29" d="M406,400.49c0,0-0.43-5.58,3.71-5.67c4.13-0.09,6.17,6.77,6.17,6.77L406,400.49z"/> <path opacity="0.2" fill="#2D2D29" d="M470.86,390.44c0,0,0.28,5.93,6.07,2.05c0,0,3.56,6.55,10.64,1.8c0,0,4.91,5.05,9.58-0.36 c0,0,7.42,0.74,6.67-4.13l-0.53,7.23l-2.12,0.21l-2.88,0.63c0,0-2.58,1.49-3.01,1.57c-0.42,0.07-6.73-0.7-6.73-0.7l-1.42-1.55 l-4.06,1.36l-4.85-0.17l-1.44-1.56l-4.52,1.36l-3.05-1.3C469.2,396.88,468.24,391.71,470.86,390.44z"/> <path opacity="0.2" fill="#2D2D29" d="M491.5,374.59c0,0-11.38-4.72-12.28-5.05l-1.19-11.55 C478.02,357.99,488.98,373.07,491.5,374.59z"/> <path opacity="0.2" fill="#2D2D29" d="M400.14,369.65c0,0-14.11,11.41-14.71,16.06c0,0,17.26-12.94,19.1-12.91 c1.85,0.04-1.34-4.66-1.34-4.66L400.14,369.65z"/> <path opacity="0.2" fill="#2D2D29" d="M419.05,362.84c0,0,13.44,15.17,13.62,15.41c0.18,0.25,1.8,4.9,7.82,4.32 c0,0-6.22,1.24-11-1.81s-8.86-12.02-8.86-12.02L419.05,362.84z"/> </g> <path fill="#2D2D29" d="M369.77,368.89c-2.6,0.6-5.15,1.37-7.67,2.23c-2.26,0.77-5.08,1.6-6.81,3.33c0.05-0.05,0.1-0.1,0.15-0.15 c-4.37,3.34-8.73,7.53-11.1,12.57c-1.16,2.47-1.63,5.57,0.26,7.82c0.2,0.23,0.88,1.08,1.22,1.07c1.46-0.05,2.93-0.14,4.39-0.25 c-1.43-0.21-2.86-0.4-4.3-0.54c0.08,0.03,0.16,0.06,0.24,0.09c-2.07-2.36-1.59-5.02-0.16-7.62c1.66-3.02,4.12-5.62,6.55-8.03 c2.27-2.24,4.51-4.33,7.35-5.8C363.13,371.93,366.49,370.48,369.77,368.89C367.3,369.47,367.49,370,369.77,368.89z"/> <path fill="#2D2D29" d="M353.47,381.28c-1.65,2.96-2.93,6.2-3.87,9.45c-0.51,1.79-1.4,4.59-0.38,6.35 c0.63,1.1,1.93,1.09,3.04,1.22c2.21,0.27,4.75,0.39,6.9-0.32c1.52-0.5,2.13-1.48,2.14-2.95c-0.03-2.32-0.41-4.63-0.64-6.93 c-0.17-1.72-0.74-4.28,0.17-5.87c-0.71,0.75-0.89,1.89-1.03,2.87c-0.21,1.45-0.25,2.92-0.27,4.38c-0.03,2,0.2,4.38-0.06,6.22 c-0.07,0.49-1.87,0.66-2.24,0.7c-1.45,0.15-2.93,0.09-4.37-0.02c-0.5-0.04-1.27,0.02-1.74-0.19c-0.73-0.31-0.47-1.75-0.41-2.45 C351.14,389.52,352.43,385.38,353.47,381.28z"/> <path fill="#2D2D29" d="M360.36,395.85c2.7,2.35,9.16,4.99,11.57,0.9c1.22-2.28,0.34-5.24-0.36-7.55 c-0.36-1.2-0.78-2.38-1.13-3.58c-0.26-0.9-0.7-2.17-0.22-3.07c-1.31,1.16-0.75,3.82-0.53,5.3c0.33,2.26,1.18,4.84,0.76,7.13 c-0.25,2.01-2.75,2.32-4.39,2.14C364.12,396.98,362.21,396.46,360.36,395.85z"/> <path fill="#2D2D29" d="M371.05,396.31c2.23,1.73,7.29,3.81,8.7,0.14c0.8-2.08-0.11-4.88-0.75-6.89c-0.66-2.08-1.71-4-2.41-6.05 c-0.25,2.25,0.4,4.64,0.81,6.84c0.3,1.72,1.13,4.21,0.39,5.9c0.09-0.2,0.03-0.08,0-0.03c-0.17,0.28-0.39,0.42-0.7,0.52 c-0.75,0.25-1.57,0.21-2.34,0.14C373.51,396.79,372.28,396.54,371.05,396.31z"/> <path opacity="0.2" fill="#2D2D29" d="M377.4,390.35c0,0-0.69,5.89-6.2,1.63c0,0-4,6.29-10.74,1.06c0,0-5.24,4.7-9.53-1.02 c0,0-7.46,0.23-6.37-4.58l0.03,7.25l2.1,0.36l2.84,0.83c0,0,2.47,1.67,2.89,1.77c0.42,0.1,6.76-0.24,6.76-0.24l1.52-1.45 l3.96,1.64l4.85,0.17l1.54-1.46l4.42,1.67l3.14-1.09C378.61,396.89,379.93,391.79,377.4,390.35z"/> </g> <path fill="#2D2D29" d="M362.09,345.86c-2.05,4.38-4.6,8.55-7.12,12.68c-1.58,2.59-3.18,5.17-4.73,7.77 c-0.75,1.25-1.48,2.51-2.17,3.8c-0.34,0.65-0.68,1.31-0.96,1.99c-0.08,0.21-0.26,1.27-0.4,1.36c-0.04-0.05-0.08-0.08-0.13-0.12 c1.94,1.85,4.22,3.17,6.66,4.26c-1.38-0.05-2.78-0.34-4.09-0.76c-1.38-0.44-3.23-1.1-4.19-2.26c-1.04-1.44-0.01-3.86,0.57-5.29 c0.77-1.92,1.74-3.76,2.78-5.55C352.02,357.33,356.63,350.92,362.09,345.86z"/> </g> <ellipse fill="#ADADAD" cx="511.18" cy="501.57" rx="38.84" ry="10.57"/> <ellipse fill="#ADADAD" cx="308.8" cy="484.3" rx="29" ry="6.7"/> <path opacity="0.3" fill="#FFFFFF" d="M404.81,269.86c-1.35,0.22-2.7,0.45-4.04,0.71C402.54,270.14,403.92,269.88,404.81,269.86z"/> <path opacity="0.3" fill="#FFFFFF" d="M479.01,295.47c0,0-0.15-0.08-0.44-0.22c-3.77-1.94-31.48-15.55-62.22-14.3 c-23.06,0.93-74.79,21.32-77.22,25.76c-1.99,3.63-2.41-7.71-2.5-11.93c0.67-0.34,1.35-0.66,2.04-0.95 c12.39-5.31,25.12-9.99,37.94-14.14c14.53-4.71,29.88-9.05,45.27-8.75c12.78,0.26,25.93,2.42,38.02,6.62 c1.36,0.48,2.72,0.97,3.94,1.74c1.16,0.74,2.19,1.77,3.17,2.72c0.98,0.96,1.94,1.96,2.86,2.98c2.27,2.67,4.17,4.85,5.63,6.52 c0.05,0.06,0.1,0.11,0.14,0.16C477.83,294.18,479.01,295.47,479.01,295.47z"/> <path fill="#E5E6E3" d="M392.27,354.08v5.95c0,0,2.09-2.67,2.11-3.2C394.39,356.29,392.27,354.08,392.27,354.08z"/> <path fill="#C5C5C5" d="M437.42,356.29c0,0-1.31,3.1-1.29,3.33c0.03,0.24,0.02,0.46,0.34,0.78c0.32,0.32,2.37,2.02,3.88,2.48 c0,0-1.42-2.15-1.66-3.14C438.69,359.74,437.08,357.35,437.42,356.29z"/> <g> <path d="M334.89,323.04c0,0,0.11,0,0.3-0.01c0.14,0,0.33,0,0.57,0c0.38,0,0.64,0.03,0.64,0.08c0.01,0.05-0.23,0.12-0.61,0.2 c-0.23,0.04-0.43,0.07-0.56,0.1c-0.19,0.03-0.29,0.04-0.29,0.04s-0.11,0-0.3,0.01c-0.14,0-0.34,0-0.57,0.01 c-0.38,0-0.64-0.03-0.64-0.08c0-0.05,0.24-0.13,0.62-0.2c0.23-0.04,0.43-0.07,0.56-0.1C334.78,323.06,334.89,323.04,334.89,323.04z "/> </g> <g> <path d="M223.28,459.08c0,0-0.75,0-1.5,0C222.53,459.07,223.28,459.07,223.28,459.08c0-0.01,0.75-0.01,1.5,0 C224.03,459.08,223.28,459.08,223.28,459.08z"/> </g> <g> <path d="M202.67,420.63c0,0,0.25-0.24,0.61-0.61c0.27-0.27,0.46-0.44,0.46-0.44s-0.17,0.18-0.44,0.45 c-0.37,0.37-0.61,0.62-0.61,0.62s-0.25,0.25-0.62,0.61c-0.27,0.27-0.45,0.44-0.45,0.44c0,0,0.17-0.18,0.44-0.46 C202.42,420.88,202.67,420.63,202.67,420.63z"/> </g> <path fill="#EAE1D6" d="M141.59,360.31c4.09-4.63,10.71-6.49,18.78-5.91c0.28-3.31,0.58-6.59,0.78-9.84 c9.09-52.47,39.96-64.75,39.96-64.75s-7.53-1.87,4.87-23.17c5.99-10.3,7.9-14.77,8.27-16.62c0.39-1.99-0.97-1.01-0.97-1.01 c-2.4-2.61-4.23-5.19-5.13-7.44c-1.56-3.87-3.79-14.07-5.33-25.29c-0.07,15.44-0.37,29.88-1.71,29.88c-2.82,0-0.71-1.45-5.64-4.58 c-4.94-3.13-27.42-15.88-26.08-21.35c0,0,2.11-13.18,9.16-18.86c7.05-5.67,25.74-25.05,24.67-21.79 c5.64-11.91,52.87-24.53,52.87-24.53c1.89-0.08,15.5-0.7,19.73-3.5c4.23-2.8,18.33-6.31,28.2,0c9.87,6.3,2.82,30.83,8.46,39.24 c5.64,8.41-7.45-2.98-11.28-7.59c1.5,2.09,2.49,3.97,2.82,5.49c2.11,9.8,5.64,33.64,4.23,36.44c-0.73,1.45-0.9,5.36-1.57,9.47 c0,0,13.16,21.01,16.92,29.52c3.76,8.51,20.29,51.11,12.4,67.54c-0.27,0.56-0.55,1.13-0.85,1.71c0.2,2.02,1.16,11.06,2.96,14.37 c2.02,3.73,6.91,12.7,6.53,20.17c-0.22,4.4,0.99,23.19,2.41,38.81c3.15,1.33,6.84,3.56,7.97,4.23c1.94,1.15,11.42,5.47,16.56,5.95 c3.6,0.33,23.14,4.54,31.14,5.8c8,1.26,8.83,3.91,10.67,5.08s3.13,6.84,3.13,6.84c5.21,4.45-1.39,7.1-1.39,7.1s-4.04,4.27-5.04,4.85 c-0.99,0.58-5.6,2.54-5.6,2.54c-0.74,1.59-15.24,2.55-17.8,2.06c-2.55-0.49-22-9.04-26.2-10.27c-0.4-0.12-1.22-0.36-2.37-0.69 c1.16,1.15,2.23,2.03,3.04,2.43c3,1.5,21.1,13.57,7.39,16.77c-0.1,0.51-0.41,0.89-1.01,1.06c-4.04,1.19-14.95,2.22-16.5-2.16 c-0.24,1.43-1,2.54-2.67,2.8c-5.69,0.9-17.25,0.36-17.8-7.94c-0.55-8.3-1.19-10.49-1.19-10.49s-5.04,0.27-5.5-2.82 c-0.14-0.93-0.94-4.81-2.09-9.82c-9.32-2.51-17.11-4.47-18.86-4.54c-2.86-0.12-7.68,0.82-11.02,1.58 c-7.25,7.86-15.87,15.29-24.91,18.97l13.9,9.76c0,0,5.46,6.77-1.2,7.88c0,0-2.61,2.19-6.07,3.17s-6.36,1.38-6.36,1.38 s0.41,2.64-2.8,3.05s-8.47-0.41-8.47-0.41s-1.51,0.81-4,0.97s-7.23-1.46-7.23-1.46l-5.15-2.83c-3.62,2.77-9.45,3.73-13.07,3.74 c-1.67,0-2.6-0.95-3.07-2.29c-0.85,4.56-11.77,5.26-15.95,4.73c-0.73-0.09-1.12-0.52-1.25-1.16c-9.24-1.16-4.73-8.17-0.2-13 c-11.35-4.24-23.8-11.72-35.51-21.95C143.01,403.52,130.03,373.39,141.59,360.31z M404.8,438.46c-0.03,0.06-0.07,0.15-0.13,0.29 C404.72,438.64,404.77,438.53,404.8,438.46z"/> <path opacity="0.2" d="M305.87,227.97c0,0,7.45,27.53-8.53,33.32s-27.39,2.71-33.28,5.81c-5.89,3.11-24.61,7.26-31.01,2.41 s-21.26-18.89-22.38-19.67s3.19-8.72,3.19-8.72s10.66,8.24,17.77,10.87c7.11,2.63,10.26,2.62,10.26,2.62s6.96,4.12,12.67,5.3 s23.66-2.06,26.54-3.67c2.87-1.62,12.83-10.88,14.82-13.89c1.98-3.01,4.34-5.71,4.34-5.71S304.33,231.68,305.87,227.97z"/> <path fill="#AC9A93" d="M178.9,190.94c2.18-1.34,6.29,2.05,11.31,3.95c4.18,1.57,9.83,6.44,11.97,11.07 c0.14-2.28,0.32-4.68,0.46-5.92c0.33-2.75-6.2-12.19-10.23-13.85c-4.03-1.66-6.94-1.14-6.94-1.14L178.9,190.94z"/> <path fill="#AC9A93" d="M239.16,168.92c0,0,3.6-10.08,7.11-12.24c4.72-2.9,17.61-3.99,26.54,2.16c0,0-10.37,1.82-11.34,7.32 c0,0,14.7-2.22,23.1,2.76c0,0-3.47,1.45-9.01,4.47c0,0,10.42,0.68,13.92,2.68s11.05,4.5,10.49,8.82s-2.77,9.16-3.34,14.67 s-1.36,5.39,3.37,15.75s4.61,17.73,2.22,20.77s-19.66,18.45-19.66,18.45s-14.31,7.04-19.16,6.76c-4.85-0.28-19.68-6.57-20.66-7.32 c-0.99-0.75-4.43-2.16-5.44-3.88s-3.59-13.57-6.85-16.21s-8.81-5.85-13.17-6.75c-4.36-0.9-8-4.06-8.56-6.24s3.18-12.97,4.11-15.09 s4.01-6.46,6.81-9.02c0,0-2.94-0.23-5.39,2.78c0,0,0.53-8.14,6.74-14.67c0,0-7.3-0.64-11.12,3.95c0,0,0.71-16.61,13.14-21.21 C229.89,165.07,239.16,168.92,239.16,168.92z"/> <path fill="#4D4439" d="M269.96,191l0.13,0.12l0.03-0.01C270.07,191.07,270.02,191.03,269.96,191z"/> <path fill="#5C5654" d="M210.1,216.95c0.85-3.8,2.99-7.24,4.41-10.84c2.48-6.37,8.42-10.86,14.75-13.15c0.01,0,0.01,0,0.02-0.01 c2.41-0.86,3.64,1.76,4.15,3.67c0.49,1.87,0.7,3.81,1.04,5.71c0.17,0.95,0.66,1.47,1.53,1.87c0.17,0.08,0.33,0.16,0.49,0.25 c0.78-2.58,1.61-5.15,2.46-7.68c3.02-1.99,6.07-3.93,9.25-5.65c0.18-0.1,0.35-0.2,0.53-0.29c-0.1-0.09-0.19-0.18-0.28-0.27 c0.18-0.12,0.35-0.24,0.52-0.37c0.01,0.16,0.03,0.33,0.03,0.5c1.76-0.94,3.56-1.82,5.42-2.55c1.73-0.68,3.86-1.48,5.72-0.95 c-0.06-0.15,5.31,2.41,7.67,3.61c0.01-0.03,0.02-0.07,0.03-0.1c0.29-0.89,0.25-1.62-0.33-2.39c-1.57-2.06-7.53-8.11-3.31-10.19 c2.8-1.37,5.86-2.37,8.95-2.84c1.99-0.3,4.02-0.37,6.03-0.14c2.04,0.22,3.88,0.95,5.79,1.65c3.48,1.27,7.41,2.06,10.52,4.16 c1.45,0.97,2.52,2.3,2.78,4.05c0.15,0.96-0.05,1.88-0.23,2.82c-0.02,0.14-0.04,0.28-0.06,0.42c-0.01,0.09-0.03,0.17-0.04,0.25 c-0.01,0.04-0.02,0.08-0.02,0.12c-0.08,0.44-0.15,0.74-0.2,0.88c-0.01,0.03-0.02,0.06-0.03,0.08c-0.72,2.89-2.15,5.6-3.47,8.25 c-1.23,2.5-3.7,6.45-2.42,9.32c0.08,0.17,0.19,0.36,0.33,0.55c0.01,0,0.01,0.01,0.01,0.01c3.9,3.95,7.24,8.6,8.95,13.9 c1.37,4.2,1.46,8.56,0.43,12.74c-0.22,0.93-0.51,1.86-0.86,2.77c-0.24,0.68-0.52,1.34-0.83,2.01c-3.71,7.88-10.7,14.04-18.44,17.83 c-5.58,2.74-11.8,4.43-18,5.03c-5.93,0.58-11.97-0.49-17.19-3.43c-1.43-0.81-2.77-1.74-4-2.8c-1.01-0.85-1.94-1.79-2.79-2.79 c-1.75-2.04-3.18-4.36-4.25-6.89c-1.33-3.12-2.09-6.34-2.51-9.62c-0.77-0.92-0.45-2.79-1-3.83c-0.75-1.42-2.39-2.22-3.81-2.81 c-1.61-0.67-3.29-1.16-4.96-1.66c-2.74-0.82-5.57-1.61-8.09-3c-0.01,0-0.03-0.01-0.04-0.02c-0.02-0.01-0.03-0.02-0.06-0.03 c-0.23-0.11-0.71-0.39-1.41-0.88c-0.93-0.57-1.76-1.12-2.44-2C209.7,220.71,209.7,218.69,210.1,216.95z M270.09,191.12l0.03-0.01 c-0.05-0.04-0.1-0.08-0.16-0.11L270.09,191.12z"/> <path fill="#4D4439" d="M269.96,191l0.13,0.12l0.03-0.01C270.07,191.07,270.02,191.03,269.96,191z"/> <path fill="#AC9A93" d="M270.64,153.66l8.96,4.97c-1.8-1.15-3.05-2.19-2.91-2.63c0.32-1.03,7.79,1.47,10.22-3.26 c2.42-4.73,5.59-9.19,9.46-9.74c3.64-0.52,5.6-2.07,5.83-2.26l-3.6-2.65c0,0-9.64-0.66-11.69,4.08c-2.06,4.73-6.98,8.95-9.7,9.07 C274.49,151.35,270.64,153.66,270.64,153.66z"/> <path fill="#5C5654" d="M276.69,156c-0.14,0.44,1.11,1.47,2.91,2.63c2.41,1.56,5.81,3.33,8.08,4.14c3.94,1.4,13.3,10.52,16.12,13.52 c2.82,3.01,9.65,10.43,11.1,8.17c1.45-2.26-4.66-9.72-4.96-12.55c-0.31-2.82-1.58-13.88-1.23-21.68c0.36-7.78-6.49-9.52-6.49-9.52 s-0.01,0.01-0.02,0.02c-0.23,0.19-2.19,1.74-5.83,2.26c-3.87,0.56-7.04,5.01-9.46,9.74C284.48,157.47,277.01,154.97,276.69,156z"/> <path fill="#5C5654" d="M173.17,218.57c3.01,2.82,13.36,6.47,16.05,9.4c2.68,2.93,11.66,8.27,11.94,6.36 c0.28-1.91,1.85-24.19,1.85-24.19c0.17-1.3-0.16-2.73-0.84-4.19c-2.14-4.62-7.79-9.5-11.97-11.07c-5.02-1.9-9.13-5.29-11.31-3.95 c-0.01,0-0.02,0-0.02,0.01l-0.55,0.5c-1.98,2.51-7.03,11.04-8.28,14.98C168.8,210.37,170.17,215.75,173.17,218.57z"/> <path fill="#5C5654" d="M178.33,191.45l0.55-0.5C178.68,191.07,178.5,191.24,178.33,191.45z"/> <path opacity="0.2" fill="#FFFFFF" d="M241.61,197.02c0,0,11.67-7.12,16.04-6.85s28.65,13.49,34.43,24.37 c0,0-24.68-17.52-31.72-17.52c-8.13,0-12.68,4.66-14.98,8.77c-3.24,5.79-6.59,24.04-6.43,31.9c0,0-2.83-19.59-1.83-25.01 C238.11,207.27,238.13,200.64,241.61,197.02z"/> <path opacity="0.2" fill="#FFFFFF" d="M263.39,215.97c-0.45,0.89-0.2,3.86,1.13,3.81c1.33-0.05,11.58,5.01,14.95,8.2 c1.72,1.63,6.31,5.85,9.37,6.77c0,0-7.72-8.32-9.08-10.64C277.21,219.77,266.58,209.67,263.39,215.97z"/> <path opacity="0.2" fill="#FFFFFF" d="M257.08,218.28c0.87,0.49,2.31,3.11,1.17,3.79c-1.14,0.68-6.88,10.53-7.92,15.03 c-0.53,2.3-2.02,8.34-4.06,10.78c0,0,1.83-11.17,1.68-13.85C247.67,229.03,250.93,214.77,257.08,218.28z"/> <path opacity="0.1" fill="#FFFFFF" d="M271.82,230.65c0,0-7.43-6.99-8.63-5.44s-3.95,4.45-4.51,8.66c0,0,2.71-4.85,5.85-4.86 C267.66,228.99,270.78,229.41,271.82,230.65z"/> <path fill="#AFAAA8" d="M306.12,251.87c-3.98,3.08-8.14,6.17-12.92,7.92c-2.53,0.93-4.91,2.22-7.43,3.17 c-2.82,1.06-5.54,1.22-8.52,1c-5.98-0.44-12.03-1.47-17.81,0.67c-2.77,1.03-5.29,2.62-8.11,3.53c-1.72,0.56-3.87,1.06-5.7,0.91 c0.08,0.01,0.17,0.01,0.25,0.02c-4.61-0.22-8.78-2.21-12.74-4.45c-5.2-2.94-10.06-6.43-14.95-9.84c-0.64-0.45-1.28-0.9-1.92-1.34 c-0.27-0.19-0.87,0.19-0.97,0.49c-0.12,0.4,0.89,1.79,1.1,2.17c0.66,1.19,1.37,2.36,2.11,3.5c3.2,4.93,7.11,9.48,11.69,13.19 c4.02,3.27,8.79,6.02,14.03,6.65c4.47,0.54,8.82-0.38,12.68-2.72c4.92-3,9.01-7.84,14.74-9.34c2.86-0.75,5.81-0.59,8.67,0.12 c2.95,0.73,5.85,1.75,8.91,1.95c5.36,0.34,10.5-2.37,13.91-6.38c1.73-2.03,3.03-4.47,3.63-7.07c0.25-1.08,0.38-2.19,0.33-3.31 C307.06,252.03,306.72,252.09,306.12,251.87z"/> <path fill="#AFAAA8" d="M201.07,281.57c1.27,1.65,3.04,2.94,4.85,3.93c2.62,1.44,5.12,2.13,8.12,1.83c3.07-0.31,5.76-0.05,8.29,1.9 c1.11,0.86,2.12,1.84,3.22,2.71c1.19,0.94,2.54,1.68,3.83,2.48c4.54,2.85,10.21,4.62,15.61,4.72c0.25,0.01,0.75-0.45,0.66-0.7 c-0.35-1.01-0.88-1.98-1.45-2.89c-1.49-2.4-3.72-4.43-6.07-5.99c-1.49-0.99-3.14-1.68-4.85-2.19c-1.89-0.56-3.82-1.13-5.79-1.29 c-1.84-0.15-3.68,0.01-5.51-0.27c-1.75-0.27-3.37-0.94-4.79-2c-1.41-1.06-2.65-2.41-4.29-3.13c-1.66-0.75-3.61-0.99-5.42-1.02 c-1.65-0.03-3.3,0.16-4.88,0.65c-0.45,0.14-0.9,0.3-1.33,0.5C201.17,280.84,201.11,281.43,201.07,281.57z"/> <path fill="#AFAAA8" d="M317.8,259.92c-2.65,2.71-5.04,5.67-7.57,8.49c-1.83,2.04-3.71,4.2-6,5.76c-0.95,0.65-1.95,0.97-3.01,1.34 c-4.33,1.52-8.66,3.05-12.99,4.57c3.87,0.01,7.74,0.02,11.62,0.04c2.29,0.01,4.58,0.01,6.88-0.1c4.51-0.25,9.55-0.5,13.74-2.34 c-6-1.25-12.05-2.1-18.17-2.44c0.07,1.62,0.14,3.24,0.21,4.87c4.38-0.49,7.74-4.35,10.03-7.77 C315,268.67,317.05,264.31,317.8,259.92C317.06,260.68,317.62,260.97,317.8,259.92z"/> <path fill="#AFAAA8" d="M311.64,302.18c-1.74-0.87-3.67-1.42-5.57-1.83c-2.88-0.62-5.95-1.04-8.89-0.83c-3.08,0.18-6,1.34-9.07,1.64 c-2.06,0.2-4.13-0.08-6.15,0.38c-2.69,0.61-5.44,0.87-8.1,1.61c-3.01,0.84-6.06,1.58-8.99,2.71c-2.75,1.06-5.4,2.38-8,3.75 c-1.19,0.63-2.33,1.32-3.5,1.98c-0.55,0.3-1.1,0.61-1.64,0.94c-0.14,0.09-0.67,0.3-0.74,0.47c-0.51,1.2,3.91,0.92,4.44,0.91 c2.85-0.09,5.67-0.53,8.45-1.18c6.04-1.42,11.89-4.19,17.05-7.58c0.78-0.51,1.55-1.03,2.35-1.51c0.74-0.45,1.78-0.49,2.62-0.56 c3.18-0.25,6.1,0.72,9.16,1.36c2.93,0.61,5.98,0.46,8.94,0.12c2.4-0.28,4.82-0.73,7.09-1.58 C311.66,302.78,311.62,302.79,311.64,302.18z"/> <path fill="#AFAAA8" d="M275.49,281.18c-4.87-0.48-9.86-0.1-14.72,0.25c-5.11,0.37-10.21,0.86-15.32,1.18 c4.59,2.23,10.18,2.17,15.16,1.82C265.58,284.05,270.89,283.21,275.49,281.18z"/> <path opacity="0.2" d="M171.88,413.21c3.68-1.4-6.66-22.52-5.4-20.09c0,0.01,0.01,0.02,0.01,0.03c-6.22-12.91-8.12-25.5-8.12-25.5 c-1.97-9.7,0.89-18.93,2.24-20.27s3.54,19.91,9.66,30.67c8.51,14.96,17.09,22.93,17.09,22.93c17.98,16.24,31.68,21.49,31.68,21.49 s1.15,3.91,0.98,4.88c-0.16,0.98-1.31,4.32-1.31,4.32l-6.09,12.88c0,0-0.89-1.73-5.71,4.54s0.55,7.85,0.55,7.85 c10.02,8.45,15.25-2.82,15.25-2.82c2.53,8.23,19.57-1.89,19.57-1.89l-0.16-12.2l3.27-0.98l4.8-0.81l9.44-0.49 c0,0,14.57,7.32,16.2,7.65s5.09,0.4,6.32,2.31c1.23,1.91,0.18,4.79-0.58,5.37s-2.53,1.11-2.44,1.04s-2.13,3.05-4.94,3.53 s-6.3,0.47-5.46,0.52s-1.71,1.57-2.72,2.62s-9.48,0.14-9.48,0.14s0.29,1.18-0.14,1.41c-0.44,0.23-5.41-0.54-7.93-0.95 c-2.52-0.42-8.81-3.86-8.81-3.86c-1.33,1.38-11.46,3.68-13.07,3.74s-3.74-1.68-3.74-1.68c-0.36,2.74-7.57,3.92-7.57,3.92l-7.56,1.32 l-2.36-2.12c0,0-2.78-0.79-4.45-1.48s0.77-6.9,1.79-7.42s3.42-4.28,3.42-4.28s-24.14-14.66-40.25-24.41 c-16.11-9.75-27.26-40.59-27.26-40.59C147.59,397.96,163.13,416.53,171.88,413.21z"/> <path opacity="0.3" d="M316.97,352.73c-2.02,2.91-8.46,12.9-7.84,19.05c0.61,6.16,0.82,9.33,2.21,12.76 c1.38,3.43,1.17,7.14,0.75,8.03c-0.42,0.89-18.09,28.4-26.94,32.51c-8.86,4.12-21.09,11.62-27.09,12.76 c-6.01,1.14-15.94,2.19-15.94,2.19s-1.14,0.21,0-5.37c1.14-5.58,5.29-65.64,8.07-73.46c2.79-7.83,8.5-15.62,7.42-17.95 c-1.09-2.33,3,0.29,3.93,6.59c0.93,6.3,1.39,11.36-2.08,17.8c-3.47,6.44-4.33,14.21-4.83,20.34c-0.5,6.12-3.12,24.3,1.9,26.37 c1.11,0.46,3.46-0.08,6.57-1.46c0.25-0.79,0.5-1.6,0.75-2.4c1.78-5.92,4.11-11.67,6.78-17.25c1.3-2.72,2.85-5.25,4.69-7.65 c1.74-2.28,3.15-4.66,3.98-7.42c0.9-3,0.82-6.05,0.75-9.15c-0.07-3.09,0.35-6.01,1.09-9c0.64-2.63,1.45-5.23,2.46-7.74 c0.47-1.19,1-2.36,1.59-3.49c0.07-0.13,0.65-1.47,0.83-1.47c0.21,0.03,0.75-0.04,0.83,0.18c0.19,0.53,0.34,1.08,0.48,1.63 c0.44,1.78,0.68,3.61,0.79,5.44c0.28,4.38,0.01,9.13-1.55,13.27c-0.79,2.08-1.91,4.02-2.9,6.01c-1,1.99-1.81,4.06-2.42,6.21 c-1.08,3.73-1.83,7.57-2.76,11.34c-0.76,3.1-1.7,6.14-2.54,9.22c-0.52,1.91-1.06,3.81-1.67,5.7c10.43-7.35,22.65-19.09,29.14-32.85 c2.34-4.97,11.26-28.38,13.97-33.9C317.39,339.57,318.99,349.81,316.97,352.73z"/> <path opacity="0.2" d="M218.46,426.44c0,0-11.15-6.38-19.09-11.99s-17.85-14.5-17.85-14.5s4.77,14.8,15.46,23.32 c10.69,8.52,18.97,14.26,18.97,14.26S221.53,428.24,218.46,426.44z"/> <path opacity="0.2" d="M210.66,339.57c0,0,2.29,22.71,4.26,30.1c1.97,7.4,10.15,55.7,8.36,59.83s-7.33,8.03-7.33,8.03 s4.28-10.62,3.69-12.85s-1.84-2.76-1.84-2.76s-11.51-46.16-12.44-52.04S206.62,347.98,210.66,339.57z"/> <path opacity="0.2" d="M296.28,416.18c0,0,12.26,0.37,16.71,1.53c4.45,1.16,8.83,2.32,8.83,2.32s0.39,9.27,2.09,9.82 c1.69,0.55,5.5,2.82,5.5,2.82s0.7,13.58,3.43,15.38c2.73,1.8,14.3,3.51,15.56,3.05c1.26-0.46,2.54-2.23,2.54-2.23s0.03,1.5,5.66,2 s9.03,0.3,10.76-1.56c0,0-0.99,0.55,2.05-0.22c3.92-0.99,7.2-5.1,0.03-9.84c-7.17-4.75-11.75-7.45-13.99-10 c-2.24-2.54-5.05-7.9-6.15-13.07c-1.09-5.17-4.22-44.78-4.43-49.79c0,0-1.7,15.79-1.92,24.33c-0.22,8.54,0.44,22.47,1.97,26.6 c1.53,4.13,12.07,14.58,20.13,20.21s4.83,6.98,4.38,6.77c-0.45-0.22-6.95-5.06-6.95-5.06s7.38,12.89-11.88,3.54 c0,0-6.35,6.03-14.01-2.74c-7.66-8.78-2.84-11.05-4.38-11.44c-1.53-0.39-5.03-6.05-5.03-6.7s-7.48-29.86-14.13-31.36L296.28,416.18z "/> <path opacity="0.2" fill="#2D2D29" d="M294.36,418.44c0,0,9.8-5.13,18.63-1.77c0,0-0.44-22.82-0.89-24.68 S296.96,417.14,294.36,418.44z"/> <path opacity="0.2" d="M413.81,417.76c0,0,3.51,4.27-0.9,3.29c0,0,6.06,9.11-1.76,9.11c0,0,3.25,4.26-10.05,5.83 c0,0-10.24,0.97-20.74-4.17c-10.5-5.14-30.4-13.07-30.4-13.07s2.97,7.57,6.77,9.84c3.79,2.28,11.93,5.46,18.91,7.47 s11.87,4.75,15,5.18c3.13,0.44,12.07-1.38,14.03-2.5c0,0,6.2-0.12,8.13-1.62c1.93-1.5,2.57-5.53,2.34-5.43c0,0,5.56-2.15,3.42-5.34 c-2.14-3.19-2.35-2.59-2.35-2.59S415.58,419.61,413.81,417.76z"/> <path opacity="0.2" d="M201.43,175.69c-0.55,1.39-10.09,14.51-8.43,24.27s0.34,28.43-2.23,28.72c0,0,6.75,4.66,8.59,6.8 s4.6-15.44,3.27-20.05s-2.99-32.7-1.47-34.35C202.69,179.44,201.43,175.69,201.43,175.69z"/> <path opacity="0.2" d="M211.26,337.21c0,0-6.82-5.68-10.45-11.38c0,0,5,12.83,8.74,14.76c0,0-6.59-0.21-11.92-5.25 c0,0,6.55,8.42,11.26,9.89L211.26,337.21z"/> <path opacity="0.3" d="M286.19,245.2c0,0-16.67-14.5-20.94-12.4c-4.28,2.1-7.89,21.82-7.89,21.82s7.06-15.88,9.11-16.05 S286.19,245.2,286.19,245.2z"/> <path opacity="0.2" d="M232.09,234.73c0,0-6.2,0.87-14.89-3.32c0,0,9.95,6.27,15.89,7.32l0.69,3.37c0,0-5.02,1.33-15.03-2.84 c0,0,12.51,7.68,18.15,7.85L232.09,234.73z"/> <path opacity="0.2" d="M178.9,411.78c0,0,10.19,16.81-5.58,11.49c0,0,16.52,7.45,23.57,11.39 C203.93,438.6,178.9,411.78,178.9,411.78z"/> <path opacity="0.2" d="M245.44,345.24c0,0-1.47,12.85-9.4,12.85c0,0,4.28,9.33,5.83,15.22v-14.03 C241.88,359.27,249.43,351.04,245.44,345.24z"/> <path opacity="0.5" fill="#FFFFFF" d="M310.91,232.6c0,0,18.41,34.88,21.18,44.96c2.78,10.07,9.38,38.97,3.06,47.58 c-6.32,8.61-14.68,16.72-14.68,16.72s2.43-22.96,3.89-33.45C328.36,279.64,310.91,232.6,310.91,232.6z"/> <path opacity="0.5" fill="#FFFFFF" d="M335.96,333.93l6.68,13.44c0,0,0.83,28.32,1.18,29.77c0.35,1.45-0.92,15.98-0.92,15.98 s-4.88-8.76-6.94-14.2c-2.05-5.44-3.15-27.8-3.52-31.55C332.08,343.61,335.96,333.93,335.96,333.93z"/> <path opacity="0.5" fill="#FFFFFF" d="M354.05,403.14c0,0,23.13,5.43,27.16,6.13s20.34,2.93,23.65,4.12c3.31,1.19,8.06,4,8.06,4 s-12.3-2.01-20.12-1.68c-7.82,0.33-15.19-0.11-21.78-1.22C364.44,413.39,357.85,404.33,354.05,403.14z"/> <path opacity="0.3" d="M273.92,248.45c1.83,5.03,5.29,7.97-0.05,10.33c-5.69,2.51-4.86-2.84-6.69-7.87 c-1.83-5.03-1.81-9.65,0.05-10.33C269.09,239.9,272.08,243.43,273.92,248.45z"/> <path opacity="0.2" fill="#FFFFFF" d="M198.63,280.36c0,0-38.44,39.55-37.53,67.65c0.91,28.1,0.4,1.16,0.4,1.16 s48.34-70.26,37.87-67.96"/> <path opacity="0.2" fill="#FFFFFF" d="M158.6,354.13c0,0-12.73,0.99-16.01,5.15s-6.83,14.07-5.22,17.39s7.28,17.47,12.39,7.9 s9.34-30.45,9.34-30.45"/> <g> <path fill="#2D2D29" d="M334.99,325.41c0.16,2.85,0.35,5.72,0.97,8.52c0.64,2.88,1.99,5.4,3.21,8.06c1.27,2.75,2.41,5.58,3.17,8.51 c0.79,3.03,1.01,6.07,0.94,9.19c-0.15,6.52,0.26,13.05,0.66,19.56c0.41,6.52,0.95,13.03,1.57,19.53c0.54,5.6,1.13,11.22,1.98,16.78 c0.81,5.34,4.34,9.81,7.94,13.69c1.83,1.97,3.75,3.47,6.08,4.81c2.35,1.35,4.59,2.95,6.67,4.68c1.84,1.53,4.04,3.5,4.78,5.86 c0.35,1.12,0.08,2.23-0.79,3.03c-0.41,0.38-0.9,0.67-1.41,0.91c-0.36,0.17-1.11,0.29-1.37,0.55c1.38-0.33,2.98-0.84,3.83-2.06 c1.09-1.57,0.25-3.69-0.65-5.14c-2.21-3.57-5.96-6.55-9.39-8.88c3.38,1.01,6.72,2.11,10.05,3.27c3.43,1.19,6.75,2.56,10.13,3.88 c3.42,1.34,6.73,1.9,10.4,1.52c3.58-0.38,7.15-1.25,10.52-2.51c-5.55,1.54-12.06,2.73-17.64,0.69c-2.8-1.02-5.38-2.58-8.12-3.74 c-2.86-1.21-5.79-2.28-8.7-3.37c-2.99-1.12-6.02-2.17-9.06-3.16c-0.73-0.24-1.46-0.47-2.19-0.71c-0.79-0.25-1.12-0.64-1.65-1.26 c-0.99-1.16-1.93-2.38-2.81-3.62c-1.66-2.33-3.29-4.87-3.75-7.74c-0.49-3.01-0.76-6.08-1.08-9.12c-0.26-2.42-0.48-4.85-0.7-7.28 c2.57,1.66,5.22,3.25,8,4.54c2.82,1.32,5.85,2.12,8.88,2.81c6.22,1.41,12.59,2.25,18.89,3.23c6.26,0.97,12.63,0.94,18.8,2.48 c4.62,1.15,9.81,3.22,12.11,7.69c0.21,0.41,0.39,0.83,0.54,1.27c0.14,0.42,0.17,1.18,0.47,1.48c-0.44-4.97-4.7-8.31-8.97-10.21 c-5.55-2.46-11.67-3.2-17.65-3.93c-3.22-0.4-6.39-1.06-9.57-1.69c-3.19-0.63-6.39-1.21-9.57-1.88c-3.09-0.66-6.21-1.3-9.21-2.3 c-2.91-0.96-5.6-2.42-8.19-4.01c-1.31-0.81-2.61-1.65-3.9-2.5c-0.32-0.21-0.64-0.43-0.96-0.64c-0.03-0.38-0.06-0.76-0.1-1.14 c-0.08-0.9-0.15-1.81-0.22-2.71c-0.27-3.26-0.54-6.53-0.79-9.79c-0.52-6.52-1.19-13.06-1.36-19.6c-0.08-3.14-0.01-6.32-0.52-9.42 c-0.48-2.96-1.52-5.81-2.78-8.52c-1.24-2.69-2.88-5.18-4.13-7.86c-1.27-2.74-1.99-5.65-2.59-8.59c-0.23-1.14-0.44-2.28-0.63-3.42 C335.09,325.23,335.04,325.32,334.99,325.41C335.23,329.78,335.05,325.32,334.99,325.41z"/> <path fill="#2D2D29" d="M405.24,439.22c2.72,0.53,5.38-0.54,7.56-2.1c1.08-0.77,2.37-1.71,3.12-2.81c0.31-0.46,0.47-0.99,0.37-1.54 c-0.05-0.27-0.14-0.52-0.28-0.76c-0.22-0.41-0.67-0.17-1.1-0.22c0.25-0.1,0.49-0.21,0.72-0.35c-1.66-2.08-4.58-3.24-6.98-4.2 c-2.13-0.85-4.36-1.65-6.61-2.13c2.63,1.41,5.29,2.77,7.86,4.28c0.97,0.57,1.93,1.17,2.82,1.85c0.52,0.4,1.51,1.06,1.54,1.8 c0.02,0.43-0.57,0.77-0.84,1.01c-0.63,0.57-1.27,1.11-1.96,1.6c-1.43,1.02-3.07,1.82-4.84,1.97c-3.8,0.31-6.72-2.39-9.34-4.72 C399.16,435.81,401.69,438.54,405.24,439.22C409.22,440,401.64,438.53,405.24,439.22z"/> <path fill="#2D2D29" d="M415.64,431.45c0.29,0.35,0.32,0.34,0.78,0.18c0.45-0.15,0.87-0.38,1.24-0.67 c0.76-0.59,1.37-1.46,1.58-2.41c0.48-2.16-1.44-3.97-2.96-5.18c0.04,0.44,0.05,0.88,0.03,1.31c-0.02-0.47-0.06-0.95-0.15-1.41 c-0.44-0.35-0.88-0.69-1.34-1.02c-0.84-0.59-1.72-1.13-2.62-1.62c-1.79-0.96-3.7-1.72-5.67-2.2c2.76,2.36,5.78,4.42,8.7,6.58 c0.94,0.7,2.33,1.64,2.52,2.9C417.94,429.31,416.76,430.8,415.64,431.45C415.73,431.56,416.78,430.78,415.64,431.45z"/> <path fill="#2D2D29" d="M416.16,423.28c0.09,0.46,0.13,0.94,0.15,1.41C416.32,424.34,416.45,423.5,416.16,423.28 C416.25,423.73,416.2,423.31,416.16,423.28z"/> <path fill="#2D2D29" d="M414.92,431.8c0.32,0.04,0.64,0.03,0.95-0.03C415.6,431.27,415.35,431.63,414.92,431.8 C415.24,431.84,415.18,431.7,414.92,431.8z"/> <path fill="#2D2D29" d="M414.92,431.8c0.32,0.04,0.64,0.03,0.95-0.03C415.6,431.27,415.35,431.63,414.92,431.8 C415.24,431.84,415.18,431.7,414.92,431.8z"/> <path fill="#2D2D29" d="M416.16,423.28c0.09,0.46,0.13,0.94,0.15,1.41C416.32,424.34,416.45,423.5,416.16,423.28 C416.25,423.73,416.2,423.31,416.16,423.28z"/> </g> <g> <path fill="#2D2D29" d="M205.05,462.67c0.1,0.02,0.2,0.03,0.3,0.05c-0.63-0.06,0,1.02,0.26,1.31c0.54,0.59,1.34,0.73,2.09,0.81 c2.17,0.24,4.38,0.2,6.55-0.12c2.02-0.3,4.12-0.78,5.92-1.78c1.24-0.69,2.73-1.91,2.81-3.46c1.18,3.08,5.16,2.55,7.79,2.21 c3.44-0.44,7.05-1.44,9.74-3.72c-0.2-0.18-0.4-0.36-0.57-0.57c0.23,0.15,0.48,0.29,0.73,0.42c0.32-0.28,0.62-0.58,0.9-0.89 c0.5-0.56,0.93-1.18,1.29-1.84c0.79-1.48,1-3.07,0.95-4.73c-0.05-1.72-0.23-3.44-0.32-5.17c-0.05-0.92-0.09-1.84-0.11-2.77 c-0.01-0.5-0.23-1.13,0.31-1.26c0.44-0.11,0.87-0.24,1.29-0.41c0.68-0.27,1.44-0.98,2.14-0.96c1.01,0.03,2.02,0.03,3.03,0.01 c1.89-0.05,3.78-0.2,5.65-0.44c3.74-0.48,7.43-1.35,11.01-2.54c-0.37,0.3-0.81,0.52-1.26,0.67c4.7,2.08,9.02,5.04,12.78,8.52 c1.17,1.08,2.45,2.14,3.25,3.54c1.18,2.06-0.24,3.33-2.09,4.23c-0.21-1.85-1.86-3.22-3.28-4.24c-1.92-1.35-4.09-2.44-6.41-2.89 c0.84,0.95,1.94,1.59,2.99,2.28c1.01,0.67,1.85,1.46,2.65,2.36c0.68,0.76,1.31,1.58,2.01,2.31c0.3,0.32,0.08,0.72-0.17,0.99 c-1.03,1.13-2.75,1.77-4.14,2.31c-0.87,0.34-1.76,0.64-2.67,0.89c-0.4,0.11-0.8,0.21-1.2,0.29c-0.18,0.03-0.35,0.07-0.53,0.09 c0.02,0.35-0.01,0.66-0.12,0.99c3.05-0.16,6.18-0.71,8.87-2.23c0.56-0.32,1.1-0.71,1.49-1.22c0.19-0.25,0.33-0.52,0.42-0.82 c0.12-0.39,0.6-0.38,0.97-0.51c1.49-0.53,3.07-1.6,3.21-3.31c0.25-3-3.06-5.99-5-7.87c-2.85-2.75-6.1-5.17-9.51-7.18 c5.6-2.13,10.85-5.09,15.64-8.68c2.37-1.78,4.62-3.7,6.76-5.74c0.51-0.49,1.02-0.99,1.52-1.49c0.5-0.5,1.2-0.8,1.82-1.12 c1.4-0.72,2.86-1.31,4.38-1.73c3-0.83,6.15-0.82,9.19-0.28c3.1,0.54,5.97,1.7,8.96,2.6c0.73,0.22,1.46,0.42,2.19,0.62 c0.49,0.13,0.7,0.04,0.81,0.57c0.08,0.37,0.16,0.74,0.23,1.12c0.33,1.61,0.67,3.23,0.99,4.84c0.53,2.6,0.55,5.38,3.23,6.7 c0.72,0.36,1.51,0.57,2.3,0.7c0.51,0.08,0.78-0.09,0.87,0.48c0.1,0.64,0.18,1.28,0.26,1.92c0.24,2.02,0.35,4.04,0.55,6.07 c0.18,1.86,0.61,3.55,1.76,5.06c1.05,1.38,2.44,2.46,4,3.22c3.07,1.5,6.59,1.76,9.96,1.58c1.42-0.08,2.88-0.12,4.23-0.61 c0.64-0.23,1.25-0.57,1.71-1.07c0.27-0.29,0.48-0.62,0.64-0.98c0.06-0.14,0.19-1.2,0.1-1.14c0.32,0.56,0.24-0.14,0.27-0.38 c0.05-0.43,0.05-0.87,0.02-1.3c-0.06-0.89-0.26-1.77-0.52-2.63c-0.49-1.6-1.18-3.17-1.97-4.63c0.78,2.66,1.87,5.36,1.36,8.19 c-0.54,3.02-3.68,2.76-6.16,2.67c-3.71-0.13-8.53-0.72-11.05-3.77c-1.61-1.94-1.49-4.72-1.67-7.1c-0.12-1.5-0.22-3.01-0.39-4.51 c-0.12-1.01-0.07-3.17-1.16-3.69c-0.8-0.38-1.85-0.18-2.71-0.34c-1.09-0.2-1.91-0.7-2.17-1.82c-0.69-3.04-1.27-6.11-2.01-9.15 c-1.27-5.2-2.65-10.38-4.24-15.5c-0.8-2.56-1.65-5.11-2.61-7.62c-0.83-2.16-1.67-4.7-3.12-6.54c-0.21,0.41,0.61,2,0.78,2.51 c0.37,1.08,0.69,2.17,0.98,3.27c0.63,2.32,1.2,4.66,1.75,7.01c1.06,4.6,2.04,9.22,3.03,13.83c-3.59-0.85-6.94-2.39-10.61-2.96 c-3.81-0.59-7.71-0.31-11.37,0.92c3.32-3.87,6.32-8.03,9-12.36c1.37-2.22,2.66-4.5,3.86-6.82c0.57-1.11,1.11-2.23,1.63-3.36 c0.24-0.52,0.48-1.03,0.74-1.55c0.25-0.5-0.27-1.02-0.73-1.28c0.39,0.16,0.7,0.46,0.95,0.79c0.5-1.37-0.62-3.03-1.07-4.32 c-0.62-1.78-1.16-3.58-1.61-5.42c-0.85-3.5-1.56-7.37-1.13-10.98c0.39-3.27,1.86-6.3,3.43-9.16c1.81-3.29,3.72-6.51,5.59-9.77 c-1.86,2.64-3.72,5.29-5.47,8c-1.59,2.47-3.2,4.99-4.23,7.75c-2.14,5.7-0.82,12.33,0.72,18.02c0.39,1.46,0.85,2.9,1.36,4.32 c0.15,0.43,0.31,0.59,0.12,1.02c-0.14,0.31-0.29,0.62-0.43,0.93c-0.34,0.72-0.69,1.44-1.05,2.16c-1.3,2.57-2.72,5.08-4.25,7.51 c-3.08,4.89-6.6,9.51-10.5,13.78c-11.94,13.06-27.95,22.57-46.11,22.62c0.33-2.75,0.19-5.62,0.28-8.38c0.1-2.98,0.2-5.96,0.31-8.94 c0.23-6.16,0.47-12.32,0.73-18.48c0.26-6.17,0.53-12.34,0.89-18.5c0.17-2.94,0.36-5.88,0.63-8.82c0.13-1.44,0.28-2.89,0.49-4.32 c0.1-0.7,0.21-1.41,0.38-2.1c0.04-0.17,0.3-0.99,0.25-0.96c1.45-0.94,2.64-2.6,3.66-3.97c1.12-1.5,2.13-3.06,2.9-4.75 c1.64-3.59,2.04-7.24,1.34-11.11c0.31,3.75-0.4,7.33-2.21,10.64c-0.85,1.57-1.89,3.04-3.06,4.39c-0.58,0.67-1.2,1.32-1.85,1.93 c-0.32,0.3-0.65,0.6-0.98,0.89c-0.1,0.09-0.89,0.71-0.66,0.56c-0.89,0.59-1.09,1.8-1.33,2.75c-0.38,1.54-0.64,3.11-0.87,4.68 c-0.46,3.19-0.79,6.4-1.1,9.6c-0.62,6.46-1.06,12.94-1.4,19.43c-0.35,6.61-0.64,13.21-0.84,19.83c-0.09,3.27-0.2,6.53-0.26,9.8 c-0.03,1.57-0.05,3.14-0.05,4.7c0,1.31-0.63,1.99-1.83,2.47c-0.84,0.33-1.72,0.45-2.61,0.6c-0.68,0.11-0.44,1.06-0.44,1.56 c-0.03,2.41,0.21,4.76,0.43,7.15c0.18,1.91,0.51,3.93-0.02,5.81c-0.54,1.91-2.05,3.36-3.69,4.39c-3.06,1.92-6.85,2.65-10.41,2.91 c-0.94,0.07-1.9,0.08-2.63-0.6c-0.73-0.68-1.03-1.73-1.19-2.68c-0.42-2.43-0.09-4.93,0.4-7.32c-0.46,1.52-0.87,3.07-1.05,4.65 c-0.09,0.81-0.13,1.63-0.07,2.45c0.04,0.63,0.54,1.8,0.29,2.34c-1.23,2.56-5.03,2.95-7.51,3.22c-1.77,0.19-3.55,0.23-5.33,0.19 c-0.86-0.02-2.99,0.34-3.05-0.96c-0.1-1.67,0.67-3.39,1.24-4.93c0.65-1.77,1.39-3.5,2.1-5.24c-1.27,1.42-2.32,3.08-3.25,4.73 C206.05,458.35,204.82,460.58,205.05,462.67C205.15,462.69,204.7,459.39,205.05,462.67z"/> <path fill="#2D2D29" d="M240.67,457.82c-0.05,0.05-0.11,0.1-0.16,0.15c2.28,1.96,5.36,3.27,8.25,3.99 c1.91,0.48,3.88,0.73,5.84,0.76c0.76,0.01,1.63-0.08,2.23-0.6c0.5-0.44,0.52-0.35,1.26-0.31c1.84,0.09,3.7-0.01,5.51-0.31 c1.44-0.24,3.64-0.55,4.66-1.69c1.11-1.25,0.18-3.28-0.58-4.45c-1.04-1.59-2.41-3.01-3.9-4.18c0.84,1.45,1.72,2.87,2.45,4.37 c0.41,0.83,1.53,2.64,0.38,3.21c-1.43,0.71-3.36,0.94-4.92,1.27c-1.36,0.29-2.72,0.52-4.09,0.74c0.04-2.79-0.97-5.36-2.32-7.78 c0.55,2.05,1.09,4.71,0.78,6.83c-0.04,0.32-0.41,1.15-0.77,1.15c-0.99,0.03-1.92-0.16-2.9-0.25 C248.39,460.33,244.26,459.69,240.67,457.82C240.62,457.88,242.29,458.66,240.67,457.82z"/> <path fill="#2D2D29" d="M276.53,454.13c-0.01,0-0.03-0.02,0-0.04L276.53,454.13z"/> <path fill="#2D2D29" d="M239.94,457.4c0.18,0.22,0.48,0.72,0.73,0.42C240.42,457.69,240.17,457.55,239.94,457.4 C240.09,457.58,240.15,457.54,239.94,457.4z"/> </g> <path fill="#2D2D29" d="M158.57,362.63c0.55,5.52,2.38,10.98,3.95,16.29c-0.74-6.07-2.51-11.88-2.48-18.05 c0.03-6.33,1.41-12.59,2.97-18.7c3.07-12.01,7.38-23.85,13.83-34.5c3.15-5.19,6.72-10.13,10.78-14.65 c3.99-4.44,8.45-8.68,13.54-11.84c0.48-0.3,0.26-0.5,0.22-0.98c-0.03-0.36-0.06-0.73-0.1-1.09c-0.05-0.44-0.11-0.36-0.45-0.61 c-0.42-0.31-0.66-0.8-0.8-1.29c-0.73-2.42,0.02-5.26,0.75-7.58c1.88-5.98,5.07-11.38,7.94-16.92c1.01-1.94,1.98-3.9,2.91-5.88 c0.86-1.83,1.77-3.72,2.22-5.69c3.6,3.51,7.69,6.57,12.11,9c4.4,2.42,9.3,4.36,14.4,4.33c-5.78-0.49-11.03-3.32-15.75-6.51 c-4.76-3.22-9.2-7.06-12.73-11.61c-3.73-4.81-4.87-10.75-6.08-16.57c-0.66-3.16-1.23-6.34-1.71-9.54c-0.23-1.53-0.45-3.07-0.64-4.61 c-0.21-1.68-0.13-3.43-0.18-5.12c-0.09-3.07-0.34-6.14-0.11-9.2c0.2-2.68,0.47-5.36,0.78-8.03c0.15-1.32,0.31-2.63,0.49-3.95 c0.13-0.94-0.28-2.26-0.5-3.18c-0.11-0.47-0.23-0.95-0.44-1.39c-0.72-1.55-1.66,0.06-2.05,0.93c-1.04,2.32-1.6,4.89-2.15,7.36 c-0.66,3-1.2,6.03-1.61,9.07c-0.26,1.95-0.67,4.1-0.44,6.07c0.47,4.05,1.66,8.09,2.58,12.05c0.29,1.24,0.58,2.48,0.88,3.72 c0.14,0.59,0.28,1.18,0.43,1.78c0.17,0.71,0.04,1.51,0.03,2.23c-0.06,3.21-0.11,6.42-0.32,9.63c-0.15,2.3-0.38,4.6-0.74,6.88 c-0.68-1.09-1.33-2-2.35-2.83c-1.17-0.95-2.47-1.7-3.75-2.48c-2.67-1.64-5.34-3.28-7.98-4.96c-2.64-1.68-5.24-3.41-7.75-5.27 c-2.34-1.74-4.81-3.59-6.63-5.89c-0.74-0.93-1.22-1.8-1.05-3c0.19-1.31,0.52-2.61,0.85-3.89c0.66-2.56,1.52-5.07,2.7-7.44 c1.19-2.37,2.71-4.54,4.67-6.34c2.26-2.07,4.58-4.07,6.8-6.18c3.06-2.9,6.05-5.87,9.05-8.83c1.43-1.41,2.87-2.82,4.32-4.22 c1.22-1.19,2.41-2.48,3.83-3.43c-2.36,1.17-4.38,3.26-6.36,4.96c-2.48,2.13-4.96,4.26-7.43,6.4c-2.42,2.1-4.84,4.2-7.29,6.26 c-2.14,1.8-4.39,3.5-6.3,5.56c-3.9,4.19-6.06,10.01-7.27,15.5c-0.27,1.22-0.58,2.01-0.35,3.26c0.23,1.24,0.94,2.35,1.73,3.31 c1.74,2.14,3.94,3.96,6.11,5.64c3.56,2.75,7.34,5.18,11.17,7.53c1.92,1.18,3.84,2.35,5.74,3.55c1.66,1.05,3.69,2.08,4.79,3.77 c0.9,1.39,2.02,2.54,3.86,2.17c1.77-0.36,1.86-2.81,2.03-4.21c0.57-4.63,0.43-9.36,0.43-14.02c1.07,5.5,2.19,11.54,5.42,16.24 c0.79,1.15,1.68,2.25,2.62,3.29c0.47,0.52,0.95,1.03,1.45,1.53c0.32,0.32,0.56,0.35,0.38,0.81c-0.12,0.31-0.25,0.62-0.39,0.92 c-1.29,2.86-2.84,5.61-4.45,8.31c-3.08,5.15-6.46,10.18-8.84,15.71c-0.99,2.3-1.85,4.71-2.21,7.2c-0.3,2.07-0.41,4.65,0.97,6.39 c-5.04,3.14-9.41,7.25-13.39,11.62c-4.07,4.46-7.67,9.33-10.78,14.5c-6.43,10.66-10.88,22.46-13.6,34.58 c-1,4.46-1.85,8.99-2.25,13.54c0.33-0.01,0.65-0.01,0.98-0.01c-0.33,0.03-0.66,0.07-0.99,0.11c-0.04,0.38-0.07,0.77-0.09,1.16 c-0.05,0.77-0.09,1.54-0.11,2.31C158.35,359.28,158.4,360.96,158.57,362.63C159.12,368.12,158.29,359.79,158.57,362.63z"/> <path fill="#2D2D29" d="M255.86,145.13c0,0.17-2.67,0.53-2.98,0.59c-2.95,0.63-5.87,1.37-8.78,2.18 c-5.54,1.53-11.01,3.34-16.37,5.42c-5.14,1.99-10.15,4.27-14.89,7.07c-3.88,2.3-7.87,5.08-9.85,9.27c2.37-3.42,6.05-5.64,9.69-7.53 c4.45-2.3,9.04-4.29,13.69-6.15C236.1,152.1,246.01,148.67,255.86,145.13C255.86,145.19,247.34,148.19,255.86,145.13z"/> <path fill="#2D2D29" d="M264.18,147.49c1.86-0.36,3.91-0.73,5.81-0.53c1.08,0.11,2.16,0.63,3.15,1.04c1.28,0.53,2.53,1.15,3.75,1.82 c2.44,1.34,4.76,2.89,6.99,4.55c0.98,0.73,1.91,1.53,2.96,2.17c1.27,0.77,2.51,1.6,3.7,2.5c4.04,3.05,7.5,6.86,10.01,11.26 c0.62,1.08,1.24,2.1,1.92,3.15c0.76,1.17,1.31,2.31,2.29,3.33c1.91,1.99,4.13,3.71,6.46,5.18c-1.84-2.17-2.32-5.65-2.62-8.36 c-0.34-3.13-0.35-6.28-0.37-9.43c-0.03-3.27-0.05-6.55-0.32-9.82c-0.24-2.85-0.66-5.76-1.95-8.35c-2.02-4.03-6.7-5.76-10.9-6.47 c-5.5-0.93-11.39-0.45-16.63,1.45c-1.52,0.55-2.87,1.44-4.38,2.03c-1.56,0.6-3.22,0.98-4.87,1.27c-3.33,0.6-9.92,0.75-13.3,0.87 c3.15-0.3,8.3-1.17,12.57-1.5c3-0.23,5.46-1.79,8.08-3.24c5.08-2.8,11.66-3.7,17.39-3.18c5.29,0.48,11.43,2.39,14.2,7.27 c2.98,5.26,2.93,12.02,3.02,17.88c0.06,3.61,0.06,7.23,0.41,10.82c0.15,1.53,0.39,3.07,0.87,4.53c0.42,1.25,1.09,2.31,1.74,3.44 c0.5,0.86,1.1,1.96,0.86,2.98c-0.28,1.2-1.65,1.62-2.74,1.43c-2.53-0.45-5.03-2.73-6.92-4.33c1.72,9.6,2.85,19.45,3.29,29.19 c0.21,4.67-0.24,9.26-1.22,13.83c-0.82,3.83-2.16,7.76-5.02,10.59c3.39-3.93,4.26-9.35,4.69-14.34c0.54-6.31,0.01-12.53-0.78-18.79 c-0.82-6.4-1.56-12.82-2.75-19.16c-0.25-1.36-0.3-3.2-1.23-4.24c-0.98-1.1-1.83-2.27-2.53-3.57c-0.64-1.18-1.18-2.42-1.81-3.61 c-0.33-0.63-0.68-1.25-1.07-1.85c-0.38-0.58-0.74-1.39-1.36-1.71c-6.53-3.32-12.66-7.42-19.27-10.57c-2.92-1.39-5.69-2.99-8.29-4.91 C267.52,151.76,262.76,148.28,264.18,147.49z M312.07,183.61c-0.01-0.07-0.02-0.15-0.05-0.22 C311.96,183.49,311.96,183.57,312.07,183.61z"/> <path fill="#2D2D29" d="M294.26,166.91c1.12,1.07,2.2,2.18,3.23,3.34c-0.42-0.76-0.92-1.49-1.42-2.2 C295.65,167.47,294.88,167.24,294.26,166.91C295.39,167.98,294.82,167.21,294.26,166.91z"/> <path fill="#2D2D29" d="M265.82,147.22c0.24-0.06,0.42-0.09,0.65-0.19C266.25,147.09,266.03,147.15,265.82,147.22 C265.9,147.2,266.08,147.13,265.82,147.22z"/> <path fill="#2D2D29" d="M249,190.69c0,0.13,0.01,0.26,0.01,0.39C248.65,190.91,248.64,190.78,249,190.69 C249.01,190.82,248.91,190.74,249,190.69z M259.87,187.12c0.16,0.23,0.32,0.45,0.49,0.67c-0.44-0.22-0.87-0.47-1.26-0.77 C259.36,187.03,259.62,187.06,259.87,187.12C260.03,187.35,259.62,187.06,259.87,187.12z"/> <path fill="#2D2D29" d="M215.69,196.77c4.33-2.59,8.28-5.95,13.1-7.61c5.06-1.75,9.09,3.16,10.16,7.61 c1.2-4.88-2.79-10.68-7.93-10.96c-3.01-0.17-5.99,1.61-8.29,3.36C219.99,191.25,217.41,193.79,215.69,196.77 C220.05,194.16,217.02,194.46,215.69,196.77z"/> <path fill="#2D2D29" d="M238.95,183.88c-2.51-4.11-6.89-7.26-11.47-8.7c-2.53-0.79-5.35-0.89-7.78,0.27 c-2.1,1.1-3.49,3.14-4.01,5.42c1.34-1.31,2.71-2.62,4.53-3.23c2.13-0.72,4.57-0.2,6.64,0.48 C231.11,179.52,234.97,181.87,238.95,183.88C236.55,179.97,235.09,181.93,238.95,183.88z"/> <path fill="#2D2D29" d="M232.7,200.12c0.21,1.23,0.22,2.56,0.85,3.68c0.29,0.52,0.74,0.91,1.25,1.21c0.25,0.15,0.52,0.28,0.78,0.4 c0.6,0.29,0.5,0.39,0.33,0.98c-0.1-0.64-1.02-0.94-1.5-1.22c-0.73-0.42-1.15-1.13-1.37-1.91c-0.33-1.16-0.35-2.4-0.5-3.59 c-0.15-1.18-0.55-5.8-2.51-5.5C232.11,193.78,232.49,198.86,232.7,200.12C232.9,201.3,232.52,199.05,232.7,200.12z M232.24,228.91 c0,0.23,0,0.46,0,0.7C232.06,229.43,232.19,229.15,232.24,228.91z M229.39,194.37c0.1-0.04,0.19-0.07,0.29-0.11 c-0.12,0.06-0.11,0.06,0.05,0C229.71,194.27,229.32,194.44,229.39,194.37C229.49,194.33,229.38,194.38,229.39,194.37z M229.34,194.39C229.31,194.4,229.26,194.39,229.34,194.39C229.34,194.39,229.32,194.39,229.34,194.39z M229.3,194.4 C229.26,194.43,229.27,194.4,229.3,194.4C229.3,194.4,229.29,194.4,229.3,194.4z M229.6,194.3c0.04-0.01,0.09-0.03,0.13-0.04 c-0.1,0.05-0.21,0.08-0.32,0.11C229.47,194.35,229.53,194.33,229.6,194.3C229.64,194.29,229.54,194.32,229.6,194.3z M229.39,194.37 C229.41,194.34,229.31,194.46,229.39,194.37C229.39,194.37,229.38,194.38,229.39,194.37z M229.3,194.41 C229.28,194.43,229.26,194.41,229.3,194.41C229.29,194.42,229.29,194.41,229.3,194.41z"/> <path fill="#2D2D29" d="M229.28,194.42c0.04-0.01,0.08-0.03,0.12-0.04C229.35,194.38,229.32,194.41,229.28,194.42z"/> <path fill="#2D2D29" d="M241.88,175.95c0,2.96,1.08,5.85,2.35,8.49c1.2,2.5,2.69,4.79,4.78,6.64c0-2.97-1.07-5.84-2.35-8.49 C245.48,180.14,244,177.71,241.88,175.95C241.88,178.76,244.05,177.75,241.88,175.95z"/> <path fill="#2D2D29" d="M259.1,187.02c0.39,0.3,0.82,0.55,1.26,0.77c-1.38-1.78-2.58-4.03-2.52-6.34c0.06-2.35,1.11-4.23,3.17-5.34 c4.71-2.54,10.2-3.45,15.21-5.25c-3.29-0.56-6.71-0.25-9.98,0.34c-2.84,0.52-5.78,1.39-8.04,3.26 C254.21,177.75,255.17,184.1,259.1,187.02C259.49,187.32,255.27,184.17,259.1,187.02z"/> <path fill="#2D2D29" d="M250.88,179c1.25-4.33,2.16-8.81,4.1-12.92c0.83-1.76,1.92-3.47,3.54-4.62c1.76-1.25,3.93-1.34,6.01-1.43 c-2.28-1.32-5.07-1.63-7.48-0.45c-2.06,1.01-3.58,2.89-4.61,4.89C250.22,168.81,249.55,174.3,250.88,179 C252.04,174.97,249.6,174.49,250.88,179z"/> <path fill="#2D2D29" d="M264.16,180.25c-0.14,1.74,1.78,3.72,2.85,4.95c0.8,0.91,1.69,1.78,2.25,2.86c0.29,0.55,0.48,1.16,0.46,1.79 c-0.01,0.59-0.35,1.14-0.38,1.73c-0.34-0.18-0.42-0.09-0.28-0.5c0.13-0.41,0.26-0.82,0.3-1.25c0.06-0.71-0.18-1.39-0.54-1.99 c-0.5-0.84-1.17-1.59-1.78-2.35C265.97,184.18,263.99,182.09,264.16,180.25C264.05,181.64,264,182.04,264.16,180.25z M265.11,179.21 C265.28,179.13,264.83,179.31,265.11,179.21C265.13,179.2,265.08,179.22,265.11,179.21z M264.91,179.31 c0.02-0.02-0.09,0.06-0.11,0.07C264.83,179.35,264.87,179.33,264.91,179.31z M264.91,179.31c0.05,0-0.12,0.07-0.11,0.07 C264.83,179.35,264.87,179.33,264.91,179.31C264.92,179.31,264.88,179.34,264.91,179.31z M265.11,179.21 C265.28,179.13,264.83,179.31,265.11,179.21C265.13,179.2,265.08,179.22,265.11,179.21z"/> <path fill="#2D2D29" d="M211.02,213.74c1.16-2.28,2.37-4.54,3.6-6.78c1.12-2.03,2.19-4.02,3.79-5.73c2.94-3.13,6.84-5.36,10.87-6.81 c-4.23,1.61-8.36,4.18-11.12,7.82c-1.46,1.93-2.27,4.23-3.24,6.42c-1.07,2.43-2.35,4.85-3.17,7.39c-0.67,2.09-0.88,4.45,0.85,6.09 c1.62,1.53,3.99,2.27,6.09,2.87c2.39,0.68,4.83,1.15,7.23,1.78c2.12,0.56,4.71,1.23,6.33,2.81c0-11.31,3.13-22.2,6.71-32.84 c-0.75,2.86-1.48,5.72-2.15,8.6c-0.63,2.71-0.74,5.54-0.96,8.31c-0.48,6.04-0.94,12.09-1.45,18.13c0-0.11,0.03-0.25-0.01-0.36 c0.21,0.58-0.04,1.79-0.05,2.41c-0.03,1.53,0.26,3.01,0.59,4.5c0.64,2.89,1.62,5.71,3.01,8.33c0.67,1.26,1.45,2.45,2.33,3.57 c0.22,0.28,0.45,0.55,0.68,0.82c0.3,0.34,0.38,0.27,0.81,0.17c0.67-0.15,1.3-0.43,1.88-0.78c2.23-1.35,3.93-3.61,5.38-5.72 c1.68-2.45,3.09-5.09,4.34-7.78c1.26-2.7,1.66-5.72,3.05-8.34c1.32-2.51,3.09-4.77,5.07-6.79c-0.28-0.28-0.33-1.48-0.41-1.88 c-0.15-0.74-0.3-1.49-0.43-2.24c-0.14-1.08-0.2-2.18-0.37-3.26c0.63,1.4,1.22,2.83,1.75,4.27c0.22,0.58,0.37,1.74,0.98,1.89 c0.78,0.2,1.56,0.42,2.32,0.67c2.63,0.86,5.54,2.07,7.62,3.94c1.04,0.94,1.99,1.87,3.21,2.6c1.33,0.8,2.76,1.45,4.17,2.09 c2.81,1.26,5.71,2.34,8.69,3.11c2.55,0.66,5.31,1.34,7.96,0.98c0.61-0.08,1.22-0.23,1.79-0.47c0.18-0.7,0.32-1.4,0.42-2.11 c0.21-1.47,0.27-2.95,0.15-4.43c-0.46-5.72-3.32-10.86-6.89-15.25c-2.99-3.68-7.03-6.39-10.74-9.33c-2.24-1.77-4.48-3.55-6.71-5.32 c-2.15-1.7-4.53-3.03-6.92-4.37c-2.41-1.35-4.86-2.62-7.31-3.9c-2.24-1.16-4.74-0.27-6.95,0.53c-5.16,1.87-10.17,4.58-14.87,7.4 c1.67-1.1,3.34-2.18,5.04-3.22c0.85-0.52,1.71-1.03,2.57-1.52c0.43-0.25,0.87-0.49,1.31-0.73c0.5-0.27,0.69-0.61,1.14-0.22 c0-0.6,0.48-0.65,0.98-0.91c0.56-0.29,1.11-0.56,1.68-0.83c1-0.48,2.02-0.91,3.05-1.31c0.97-0.38,1.96-0.73,3-0.91 c0.45-0.08,0.92-0.12,1.38-0.1c0.39,0.3,0.82,0.55,1.26,0.77c-0.17-0.22-0.33-0.44-0.49-0.67c1.35,0.25,2.7,1.12,3.92,1.71 c1.39,0.66,2.77,1.34,4.14,2.03c2.49,1.26,4.94,2.59,7.34,4c4.91,2.89,9.61,6.17,13.86,9.98c0.52-4.81,4.05-9.03,6.16-13.24 c0.97-1.94,2.2-4.52,1.57-6.74c-0.51-1.78-2.18-2.88-3.77-3.64c-2.24-1.07-4.62-1.83-6.97-2.63c-2.34-0.79-4.64-1.78-7.11-2.1 c-4.76-0.62-9.64,0.63-13.89,2.73c0.28-0.3,0.95-0.48,1.32-0.65c0.63-0.29,1.28-0.56,1.93-0.8c1.43-0.54,2.9-0.98,4.4-1.29 c2.85-0.59,5.88-0.77,8.75-0.16c2.97,0.63,5.91,1.56,8.86,2.31c1.97,0.5,3.98,1.07,5.72,2.15c4.68,2.88,3.46,8.44,1.46,12.67 c-1.12,2.37-2.48,4.63-3.73,6.93c-1,1.84-2.35,4.26-1.68,6.42c0.31,0.99,1.16,1.94,1.77,2.77c0.97,1.09,1.89,2.23,2.74,3.42 c1.63,2.27,3.02,4.73,4.01,7.35c2.1,5.55,2.04,11.62-0.11,17.14c-3.87,9.94-13.02,17.23-22.77,21.07 c-10.72,4.23-23.77,5.63-33.68-1.33c-4.29-3.01-7.48-7.33-9.35-12.19c-0.52-1.37-0.95-2.77-1.3-4.19c-0.33-1.37-0.33-3.14-1.05-4.3 c-0.6-0.97-0.53-2.2-0.92-3.24c-0.46-1.21-1.65-1.9-2.77-2.41c-4.71-2.13-10.05-2.42-14.66-4.81c-2.03-1.05-3.87-2.55-4.6-4.79 C208.62,218.75,209.88,215.97,211.02,213.74C212.58,210.68,209.91,215.91,211.02,213.74z M250.51,257.68 c4.83,1.82,10.06,1.92,15.12,1.13c4.81-0.75,9.52-2.16,13.91-4.26c8.31-3.98,16.32-11.01,18.99-20.05c-2.08,1.2-4.72,1.26-7.06,1.11 c-2.59-0.17-5.17-0.65-7.66-1.35c-2.87-0.8-5.65-1.93-8.25-3.38c-2.52-1.41-4.28-3.66-6.68-5.21c-1.19-0.77-2.44-1.47-3.71-2.11 c-0.66-0.33-1.33-0.65-2.01-0.96c-0.16-0.11-1.02,1.32-1.15,1.51c-1.71,2.6-3.21,5.23-4.08,8.22c-0.42,1.43-0.69,2.9-1.2,4.31 c-0.52,1.43-1.22,2.8-1.96,4.13c-1.41,2.53-3.13,4.9-5.15,6.97c-1.98,2.03-4.79,4.42-7.83,4.25 C244.21,254.51,247.21,256.48,250.51,257.68C256.42,259.91,247.2,256.48,250.51,257.68z"/> <path fill="#2D2D29" d="M260.27,215.44c0.12,0.76,0.23,1.53,0.37,2.29C260.54,217.01,260.59,216.09,260.27,215.44 C260.28,215.51,260.31,215.52,260.27,215.44z"/> <path fill="#2D2D29" d="M260.64,217.73c0.1,0.74,0.21,1.49,0.34,2.23c0.09,0.53,0.06,1.47,0.49,1.86 C261.16,220.46,260.88,219.1,260.64,217.73C260.81,218.97,260.88,219.1,260.64,217.73z"/> <path fill="#2D2D29" d="M158.6,354.13c0.33-0.04,0.66-0.08,0.99-0.11C159.4,354.02,158.6,353.93,158.6,354.13 C158.93,354.09,158.6,354.1,158.6,354.13z"/> <path fill="#2D2D29" d="M312.1,389.75c0.38,0.22,0.66,0.59,0.87,0.97C313.11,390.31,312.46,389.9,312.1,389.75 C312.46,389.96,312.46,389.9,312.1,389.75z"/> <path fill="#2D2D29" d="M308.35,227.97c3.11,5.64,6.25,11.27,9.28,16.95c2.97,5.59,5.48,11.32,7.62,17.27 c4.29,11.91,8.05,24.17,10.27,36.64c1.17,6.55,1.94,13.74,0.08,20.24c-0.89,3.1-2.38,5.97-3.77,8.87c-1.51,3.16-3.25,6.2-4.87,9.3 c3.63-4.73,7.24-9.71,9.77-15.13c2.65-5.69,2.72-12.01,2.24-18.15c-0.98-12.6-4.76-24.85-9.05-36.69 c-2.49-6.87-5.33-13.64-8.98-19.99C317.12,240.63,312.85,234.19,308.35,227.97C310.32,231.54,312.57,233.8,308.35,227.97z"/> <path fill="#2D2D29" d="M369.12,449.16c0.09-0.02,0.19-0.04,0.28-0.06c0-0.01,0-0.02,0-0.03 C369.3,449.1,369.21,449.13,369.12,449.16C369.21,449.14,369.21,449.13,369.12,449.16z"/> <path fill="#2D2D29" d="M334.89,323.54c0.03,0.62,0.06,1.25,0.1,1.87C335.3,324.94,334.97,324.09,334.89,323.54 C334.92,324.16,334.91,323.67,334.89,323.54z"/> <path fill="#2D2D29" d="M351.31,449.11c1.44,3.04,5.66,3.42,8.63,3.46c1.82,0.02,3.65-0.16,5.44-0.52c1.35-0.27,3.43-0.51,3.92-2.05 c0.64-2.04-1.22-4.48-2.36-5.99c-1.3-1.71-2.78-3.4-4.45-4.76c1.41,2.3,2.91,4.58,4.1,7.01c0.36,0.74,1.19,2.22,0.77,3.06 c-0.35,0.7-2.18,0.75-2.8,0.87c-2.62,0.5-5.29,0.79-7.95,0.69c-1.91-0.07-4.35-0.39-5.4-2.23 C351.16,448.81,351.2,448.96,351.31,449.11C351.47,449.45,351.2,448.88,351.31,449.11z"/> <path fill="#2D2D29" d="M351.31,449.11c0.1-0.18,0.06-0.34-0.12-0.47C351.16,448.81,351.2,448.96,351.31,449.11 C351.33,449.03,351.2,448.88,351.31,449.11z"/> <path fill="#2D2D29" d="M312.1,389.75c0.38,0.22,0.66,0.59,0.87,0.97C313.11,390.31,312.46,389.9,312.1,389.75 C312.46,389.96,312.46,389.9,312.1,389.75z"/> <path fill="#2D2D29" d="M205.05,462.67c0,0.01,0,0.02,0,0.03c0.1,0,0.2,0.01,0.3,0.02C205.25,462.7,205.15,462.69,205.05,462.67z"/> <path fill="#2D2D29" d="M205.05,462.67c0,0.01,0,0.02,0,0.03c0.1,0,0.2,0.01,0.3,0.02C205.25,462.7,205.15,462.69,205.05,462.67z"/> <path fill="#2D2D29" d="M239.94,457.4c0.18,0.22,0.48,0.72,0.73,0.42C240.42,457.69,240.17,457.55,239.94,457.4 C240.09,457.58,240.15,457.54,239.94,457.4z"/> <path fill="#2D2D29" d="M206.81,449.86c0.06,0.03,0.09,0,0.11-0.1C206.88,449.8,206.84,449.83,206.81,449.86 C206.82,449.86,206.85,449.83,206.81,449.86z"/> <path fill="#2D2D29" d="M146.79,405.64c13.21,19.41,34.2,32.96,55.45,42.28c1.05,0.46,2.12,0.9,3.17,1.36 c-2.14,2.12-4.17,5.19-5,8.08c-0.36,1.27-0.43,2.81,0.49,3.88c1.01,1.18,2.7,1.36,4.15,1.46c-0.75-0.33-1.7-0.38-2.48-0.77 c-0.86-0.43-1.58-1.11-1.76-2.09c-0.45-2.45,1.59-5.04,3.06-6.79c1.79-2.12,3.76-4.03,5.87-5.83c2.27-1.95,4.23-3.8,5.85-6.33 c1.57-2.46,3.1-5.04,4.22-7.74c0.54-1.31,1.03-2.71,1.14-4.13c0.13-1.57-0.05-3.17-0.19-4.74c-0.55-6.43-1.55-12.82-2.56-19.19 c-1.02-6.43-2.14-12.84-3.33-19.24c-1.19-6.38-2.61-12.73-3.75-19.12c-1.11-6.22-1.35-12.65-0.95-18.95c0.2-3.09,1.07-6.05,1.1-9.16 c0.04-3.13-0.24-6.28-0.54-9.39c-0.19-1.9-0.41-3.8-0.66-5.69c0.22,6.35,0.68,12.92-0.74,19.17c-1.4,6.19-1.64,12.58-1.3,18.9 c0.35,6.47,1.9,12.85,3.02,19.21c1.13,6.49,2.25,12.99,3.36,19.49c0.86,5.05,1.68,10.1,2.46,15.16c0.37,2.41,0.72,4.82,1.04,7.23 c0.16,1.21,0.3,2.43,0.4,3.65c0.09,1.01,0.31,2.14,0.06,3.14c-12.81-6.22-24.07-15.3-33.92-25.47c7.44,8.82,16.02,16.75,25.73,23.04 c1.21,0.78,2.43,1.54,3.67,2.26c0.64,0.38,1.29,0.74,1.95,1.1c0.33,0.18,0.66,0.36,0.99,0.53c0.48,0.25,1.07,0.3,0.87,0.88 c-1.01,2.85-2.41,5.62-3.98,8.2c-0.73,1.2-1.53,2.36-2.43,3.43c-1,1.11-2.2,2.01-3.26,3.06c-0.54,0.53-1.07,1.08-1.58,1.64 c-0.25,0.28-0.51,0.56-0.75,0.85c-0.3-0.16-0.59-0.32-0.89-0.49c-1.29-0.7-2.58-1.41-3.86-2.13c-19.62-10.95-39.04-23.9-51.84-42.73 c-6.06-8.92-10.64-19.45-10.64-30.38c0-2.84,0.3-5.81,1.28-8.49c0.86-2.38,2.59-4.31,4.63-5.78c1.97-1.42,4.22-2.41,6.52-3.15 c1.15-0.37,2.32-0.68,3.5-0.95c0.68-0.15,1.36-0.3,2.04-0.42c0.37-0.07,2.14-0.17,2.22-0.44c-5.51,0.07-11.56,1.28-16.1,4.54 c-4.8,3.44-6.11,9.35-6.33,14.93C135.71,385.02,140.4,396.25,146.79,405.64C153.8,415.94,139.94,395.57,146.79,405.64z"/> <path fill="#2D2D29" d="M158.6,354.13c0.33-0.04,0.66-0.08,0.99-0.11C159.4,354.02,158.6,353.93,158.6,354.13 C158.93,354.09,158.6,354.1,158.6,354.13z"/> <polygon fill="#C5C5C5" points="287.35,183.51 289.4,191.12 291.27,185.8 "/> <path fill="#C5C5C5" d="M227.05,207.82c0,0,4.18,1.9,4.23,2.64s-0.91,4.82-0.91,5.17S227.05,207.82,227.05,207.82z"/> <path fill="none" d="M207.5,462.41c-0.08-0.15,0.01,0,0.01,0.02"/> <g> <path fill="#E5E6E3" d="M527.76,478.6c0,8.98-4.13,17.63-11.1,23.28c-7.06,5.72-16.55,7.94-25.42,5.95 c-8.64-1.93-16.13-7.77-20.14-15.66c-4.13-8.12-4.31-17.95-0.46-26.21c3.73-8.01,11-14.11,19.56-16.35 c8.8-2.31,18.38-0.43,25.65,5.05C523.29,460.3,527.76,469.26,527.76,478.6z"/> <g> <path fill="#2D2D29" d="M527.76,478.6c-0.23,5-1.16,9.74-3.49,14.22c-2.6,4.98-6.66,9.29-11.5,12.16 c-10.32,6.12-23.45,5.58-33.29-1.22c-8.7-6.01-13.87-16.68-13.03-27.25c0.95-11.89,8.58-22.51,19.88-26.65 c9.42-3.45,20.04-2.18,28.3,3.57c4.28,3.04,7.85,7.16,10.11,11.92C526.75,469.56,527.55,473.96,527.76,478.6z M527.76,478.6 c-0.28-4.97-1.21-9.74-3.64-14.14c-2.7-4.89-6.88-9.02-11.82-11.62c-9.6-5.04-21.53-4.49-30.42,1.81 c-8.58,6.08-13.84,16.86-12.32,27.43c0.87,6.03,3.28,11.58,7.38,16.12c3.98,4.41,9.35,7.62,15.17,8.9 c9.05,1.98,18.88-0.43,25.81-6.63c3.31-2.95,6.01-6.67,7.64-10.8C526.99,486.08,527.55,482.43,527.76,478.6z"/> </g> </g> <g> <path fill="#2D2D29" d="M248.37,212.32c2.5,3.47,8.04,3.88,12.05,2.74c0.09-0.03,0.18-0.06,0.27-0.09c0.34-0.1,0.67-0.21,0.98-0.34 c2.68-1.71,7.16-4.97,5.71-8.62c-1.9-4.59-7.66-7.36-12.35-5.43c-2.26,0.92-4.26,2.77-5.61,4.77 C248.15,207.25,246.96,210.19,248.37,212.32z"/> <path fill="#E5E6E3" d="M252.34,206.8c0.4,0.91,2.53,0.86,4.77-0.1c2.24-0.97,3.72-2.49,3.33-3.4c-0.4-0.91-2.53-0.86-4.77,0.1 C253.43,204.37,251.94,205.89,252.34,206.8z"/> </g> <g> <path fill="#661612" d="M275.56,191.69v0.05c0.02,0.63,0.98,1.4,2.37,2.12c-0.12-0.08-0.23-0.15-0.34-0.23 c1.93,0.53,3.88,0.98,5.87,1.13c1.31,0.1,3.07,0.14,4.12-0.82c0.81-0.74,1.39-1.73,1.82-2.82c0.09-2.31-0.79-4.84-1.54-6.56 c-1.23-0.68-2.53-1.23-3.85-1.57c-0.89-0.23-1.9-0.38-2.82-0.23c-1.27,0.37-2.24,1.2-3,2.26c-0.62,1.07-1.19,2.25-1.64,3.33 c-0.02,0.03-0.04,0.06-0.04,0.1C275.93,189.83,275.56,191.05,275.56,191.69z"/> <path fill="#2D2D29" d="M281.3,180.27c3.85-0.81,8.2,1.54,11.17,3.71c1.1,0.81,1.16,1.47,0.94,2.79c-0.21,1.27-0.51,2.56-0.95,3.77 c-0.72,2.03-1.73,4.02-3.54,5.26c-3.2,2.19-8.06-0.01-10.97-1.94c-0.01-0.01-0.02-0.01-0.02-0.01c-0.12-0.08-0.23-0.15-0.34-0.23 c1.93,0.53,3.88,0.98,5.87,1.13c1.31,0.1,3.07,0.14,4.12-0.82c0.57-0.52,1.03-1.16,1.4-1.89c-0.06-2.65-0.85-5.26-1.7-7.81 c-1.06-0.54-2.16-0.97-3.27-1.26c-0.89-0.23-1.9-0.38-2.82-0.23c-0.73,0.21-1.36,0.58-1.9,1.04c-0.41,0.35-0.78,0.77-1.1,1.21 c-0.4,0.56-0.75,1.18-1.05,1.84c-0.22,0.48-0.42,0.98-0.59,1.49c-0.02,0.03-0.04,0.06-0.04,0.1c-0.58,1.38-0.95,2.6-0.95,3.24 c-0.01-0.04-0.01-0.09-0.01-0.14C275.18,187.25,276.4,181.31,281.3,180.27z M289.79,190c0.37-1.24,0.58-2.57,0.72-3.76 c-0.7-0.51-1.43-0.99-2.2-1.42C289.1,186.42,289.66,188.23,289.79,190z"/> <path fill="#661612" d="M217.2,217.66c2.21,1.63,5.07,3.34,7.81,3.12c1.42-0.12,2.67-1.66,3.46-2.68c0.7-0.9,1.32-1.86,1.9-2.84 c-0.66-2.32-2.71-5.46-3.65-6.83c-0.49-0.16-0.99-0.3-1.5-0.41c-1.38-0.3-2.95-0.4-4.16,0.45c-0.01,0-0.01,0.01-0.02,0.02 C218.55,210.75,217.57,214.37,217.2,217.66z"/> <ellipse fill="#2D2D29" cx="223.61" cy="212.06" rx="4.86" ry="5.01"/> <path fill="#FFFFFF" d="M225.67,207.94c0.45,0.85,0.34,1.92-0.36,2.66c-0.87,0.93-2.34,0.98-3.28,0.11 c-0.94-0.87-0.99-2.33-0.11-3.26l0.04-0.04c0.54-0.06,1.09-0.04,1.64,0.03C224.28,207.53,224.98,207.7,225.67,207.94z"/> <path fill="#FFFFFF" d="M225.28,211.04c0.56,0.53,0.59,1.41,0.07,1.97c-0.53,0.56-1.41,0.59-1.98,0.07s-0.59-1.4-0.07-1.97 C223.83,210.55,224.72,210.52,225.28,211.04z"/> <path fill="#2D2D29" d="M214.24,217.24c0.51-3.79,1.83-8.23,5.13-10.54c3.92-2.73,9.24,0.76,11.95,3.72 c-0.55-0.58-0.72-0.37-0.04,0.04c-1.25-0.67-2.55-1.3-3.9-1.8c1.81,1.57,3.52,4.14,3.13,6.39c0.36-0.54,0.82-1.01,1.12-1.6 c-0.17,1.19-0.67,2.45-1.16,3.8c0,0.03-0.01,0.05-0.02,0.08c0,0.01-0.01,0.02-0.01,0.03c-0.96,2.64-2.6,5.12-5.25,5.71 c-2.2,0.48-4.49-0.29-6.47-1.18c-1.19-0.55-2.32-1.2-3.4-1.94C214.17,219.17,214.06,218.54,214.24,217.24z M225.01,220.78 c1.42-0.12,2.67-1.66,3.46-2.68c0.67-0.86,1.27-1.79,1.83-2.74c-0.63-2.57-2.47-4.7-3.76-6.98c-0.43-0.14-0.87-0.26-1.32-0.36 c-1.38-0.3-2.95-0.4-4.16,0.45c-0.01,0-0.01,0.01-0.02,0.02c-2.49,2.27-3.47,5.89-3.84,9.18 C219.41,219.29,222.27,221,225.01,220.78z"/> <ellipse fill="#2D2D29" cx="281.32" cy="187.65" rx="4.86" ry="5.01"/> <path fill="#FFFFFF" d="M277.14,186.86c0.32,0.9,1.18,1.56,2.2,1.56c1.28,0,2.32-1.03,2.32-2.31c0-1.27-1.04-2.31-2.32-2.31h-0.05 c-0.41,0.35-0.78,0.77-1.1,1.21C277.79,185.57,277.44,186.2,277.14,186.86z"/> <ellipse fill="#FFFFFF" cx="281.08" cy="188.7" rx="1.4" ry="1.39"/> </g> <path fill="#817875" d="M487.48,452.57c4.67,6.13,10.82,11.51,17.3,15.64c3.73,2.37,7.53,4.31,11.58,6.07 c3.43,1.4,6.96,2.37,10.53,3.33c-3.54-0.6-7.05-1.27-10.43-2.52c-4.14-1.53-8.24-3.36-11.91-5.85 C498.03,464.9,491.54,459.38,487.48,452.57z"/> <path fill="#817875" d="M470.53,484.31c7.69-0.34,15.52,2.31,22.4,5.49c7.11,3.21,13.05,8.44,18.25,14.13 c-2.73-2.46-5.42-4.98-8.45-7.08c-3.61-2.5-7.25-4.72-11.21-6.63C485.07,487.12,477.71,484.81,470.53,484.31z"/> <g> <g> <path fill="#FDFDF1" d="M323.56,463.87c0,9.03-5.23,17.47-13.3,21.51c-8.18,4.09-18.27,3.09-25.48-2.52 c-7.2-5.59-10.65-15.01-8.79-23.93c1.83-8.76,8.63-15.95,17.27-18.27c7.22-1.94,15.1-0.36,21,4.23 C320.09,449.4,323.56,456.49,323.56,463.87z"/> <g> <path fill="#2D2D29" d="M323.56,463.87c-0.23,5.15-1.5,9.98-4.51,14.24c-3.23,4.57-7.94,7.96-13.31,9.54 c-11.6,3.42-24.43-2.4-29.47-13.41c-4.64-10.14-1.84-22.39,6.74-29.53c9.06-7.54,22.84-7.39,31.76,0.25 c2.94,2.51,5.32,5.68,6.82,9.26C322.9,457.33,323.41,460.51,323.56,463.87z M323.56,463.87c-0.29-5.14-1.59-9.91-4.75-14.07 c-3.41-4.49-8.33-7.56-13.84-8.72c-10.98-2.31-22.2,3.9-26.35,14.28c-4.44,11.08,0.73,24.44,11.59,29.53 c5.39,2.47,11.42,2.96,17.1,1.17c5.36-1.7,9.89-5.27,12.85-10.04C322.45,472.3,323.32,468.15,323.56,463.87z"/> </g> </g> <path fill="#817875" d="M277.33,462.08c5.94-1.14,11.87-3.58,17.04-6.69c2.97-1.79,5.67-3.79,8.32-6.01 c2.18-1.92,4.1-4.06,6.02-6.24c-1.66,2.28-3.36,4.51-5.42,6.45c-2.52,2.38-5.24,4.61-8.27,6.33 C289.69,458.97,283.54,461.61,277.33,462.08z"/> <path fill="#817875" d="M293.71,485.09c2.45-5.52,7.05-10.1,11.69-13.82c4.74-3.87,10.5-6.22,16.32-7.88 c-2.69,1.06-5.4,2.07-7.93,3.46c-3.02,1.66-5.85,3.45-8.58,5.56C300.77,475.86,296.58,480.22,293.71,485.09z"/> </g> </svg>